<?xml version="1.0" encoding="utf-8"?>
<!-- Generator: Adobe Illustrator 24.0.1, SVG Export Plug-In . SVG Version: 6.00 Build 0)  -->
<svg version="1.1" id="Capa_1" xmlns="http://www.w3.org/2000/svg" xmlns:xlink="http://www.w3.org/1999/xlink" x="0px" y="0px"
	 viewBox="0 0 661.7 480" style="enable-background:new 0 0 661.7 480;" xml:space="preserve">
<style type="text/css">
	.st0{clip-path:url(#SVGID_2_);}
	.st1{fill:none;}
	.st2{fill:#C5E3E5;}
	.st3{fill:#DFEFF1;}
	.st4{clip-path:url(#SVGID_4_);}
	.st5{fill:#327D70;}
	.st6{fill:#51A49A;}
	.st7{fill:#E1EEEE;}
	.st8{fill:#61BFB2;}
	.st9{clip-path:url(#SVGID_6_);}
	.st10{clip-path:url(#SVGID_8_);}
	.st11{clip-path:url(#SVGID_10_);}
	.st12{fill:#243753;}
	.st13{fill:#44556A;}
	.st14{clip-path:url(#SVGID_12_);}
	.st15{fill:none;stroke:#243753;stroke-width:1.51;stroke-miterlimit:10;}
	.st16{fill:#F17050;}
	.st17{fill:#673A59;}
	.st18{fill:#5B8293;}
	.st19{fill:#F8D1A3;}
	.st20{fill:#FEF9EC;}
	.st21{fill:none;stroke:#673A59;stroke-width:1.78;stroke-linecap:round;stroke-linejoin:round;}
	.st22{fill:#F5B8A1;}
	.st23{fill:#B43750;}
</style>
<g>
	<defs>
		<polyline id="SVGID_1_" points="661.7,0 661.7,480 0.6,480 0.6,0 		"/>
	</defs>
	<clipPath id="SVGID_2_">
		<use xlink:href="#SVGID_1_"  style="overflow:visible;"/>
	</clipPath>
	<g id="BACKGROUND" class="st0">
		<polyline class="st1" points="1919.9,0 1919.9,480 0.6,480 0.6,0 		"/>
	</g>
	<g id="OBJECTS" class="st0">
		<path class="st2" d="M86.2,333.3c0,0,157.6-182.8,177.4-182.8s232.8,182.8,232.8,182.8H86.2z"/>
		<path class="st3" d="M86.2,333.3h86.7c9.1-9.4,51.2-52.5,68.4-72.3c19.3-22.3-8.4-24.7,10.9-46.2s17.4-33.9,4.4-34.9
			s7-29.4,7-29.4C243.8,150.5,86.2,333.3,86.2,333.3z"/>
		<path class="st2" d="M320.3,333.3c0,0,200.2-242.9,225.3-242.9s295.8,242.9,295.8,242.9H320.3z"/>
		<path class="st3" d="M320.3,333.3h110.2c11.6-12.4,65.1-69.8,86.8-96c24.5-29.6-10.6-32.8,13.8-61.3c24.4-28.5,22.1-45.1,5.6-46.4
			s8.9-39.1,8.9-39.1C520.5,90.4,320.3,333.3,320.3,333.3z"/>
		<g>
			<g>
				<defs>
					<path id="SVGID_3_" d="M0.6,184.8v148.9h214c0,0-175.4-167.3-191.6-167.3C19.7,166.4,11.5,173.5,0.6,184.8z"/>
				</defs>
				<clipPath id="SVGID_4_">
					<use xlink:href="#SVGID_3_"  style="overflow:visible;"/>
				</clipPath>
				<g class="st4">
					<path class="st2" d="M-122.9,333.7c0,0,129.7-167.3,145.9-167.3s191.6,167.3,191.6,167.3H-122.9z"/>
					<path class="st3" d="M-122.9,333.7h71.4c7.5-8.6,42.2-48,56.3-66.1c15.9-20.4-6.9-22.6,9-42.3s14.3-31.1,3.6-32
						s5.7-26.9,5.7-26.9C6.8,166.4-122.9,333.7-122.9,333.7z"/>
				</g>
			</g>
		</g>
		<path class="st2" d="M633.7,367.3c0,0,157.6-182.8,177.4-182.8s232.8,182.8,232.8,182.8H633.7z"/>
		<path class="st3" d="M633.7,367.3h86.7c9.2-9.4,51.2-52.5,68.4-72.3c19.3-22.3-8.4-24.7,10.9-46.2s17.4-33.9,4.4-34.9
			s7-29.4,7-29.4C791.3,184.5,633.7,367.3,633.7,367.3z"/>
		<path class="st5" d="M0.5,333.2c0,0,68.4-48.6,104.4-48.9s113.2,48.9,113.2,48.9H0.5z"/>
		<path class="st5" d="M207.8,333.6c0,0,107.9-63.6,126.1-64.6s95.7,64.6,95.7,64.6H207.8z"/>
		<path class="st5" d="M419.5,333.6c0,0,166.7-98.2,194.7-99.8S762,333.6,762,333.6H419.5z"/>
		<rect x="0.6" y="333.6" class="st6" width="1919.3" height="146.4"/>
		<path class="st7" d="M417,210.5c0,1.5-1.2,2.7-2.7,2.7s-2.7-1.2-2.7-2.7s1.2-2.7,2.7-2.7l0,0C415.8,207.8,417,209,417,210.5z"/>
		<ellipse class="st8" cx="517.5" cy="399.5" rx="31.7" ry="7"/>
		<path class="st8" d="M54.6,361.8c0,2.5-9.2,4.5-20.5,4.5s-20.5-2-20.5-4.5s9.2-4.5,20.5-4.5S54.6,359.3,54.6,361.8z"/>
		<path class="st8" d="M651.5,361.8c0,2.3-8.5,4.2-19,4.2s-19-1.9-19-4.2s8.5-4.2,19-4.2S651.5,359.5,651.5,361.8z"/>
		<ellipse class="st8" cx="561.5" cy="346.6" rx="12.2" ry="2.7"/>
		<ellipse class="st8" cx="148.4" cy="404.2" rx="40.8" ry="9"/>
		<g>
			<g>
				<defs>
					<path id="SVGID_5_" d="M681,445.5c-55.3,0-100.2,9.9-100.2,22.1c0,4.6,6.4,8.9,17.3,12.4h165.8c10.9-3.5,17.3-7.8,17.3-12.4
						C781.2,455.4,736.3,445.5,681,445.5z"/>
				</defs>
				<clipPath id="SVGID_6_">
					<use xlink:href="#SVGID_5_"  style="overflow:visible;"/>
				</clipPath>
				<g class="st9">
					<ellipse class="st8" cx="681" cy="467.6" rx="100.2" ry="22.1"/>
				</g>
			</g>
		</g>
		<g>
			<g>
				<defs>
					<path id="SVGID_7_" d="M15.9,435.6c-5.2,0-10.3,0.1-15.3,0.4v30.3c4.9,0.2,10,0.4,15.3,0.4c38.8,0,70.3-7,70.3-15.5
						S54.8,435.6,15.9,435.6z"/>
				</defs>
				<clipPath id="SVGID_8_">
					<use xlink:href="#SVGID_7_"  style="overflow:visible;"/>
				</clipPath>
				<g class="st10">
					<ellipse class="st8" cx="15.9" cy="451.1" rx="70.3" ry="15.5"/>
				</g>
			</g>
		</g>
		<g>
			<g>
				<defs>
					<path id="SVGID_9_" d="M0,307.8c89.4-47.4,93.5-120,93.5-120c-34.1,6-66.1,20.2-93.5,41.4V307.8z"/>
				</defs>
				<clipPath id="SVGID_10_">
					<use xlink:href="#SVGID_9_"  style="overflow:visible;"/>
				</clipPath>
				<g class="st11">
					<path class="st12" d="M-78.1,335.8c0,0,41-124.4,171.6-148C93.5,187.8,87.3,298.5-78.1,335.8z"/>
					<path class="st13" d="M-78.1,335.8c11.6-12.7,23.9-24.6,36.4-36.4s25.3-23.1,38.3-34.3s26.2-22,39.7-32.5
						c6.8-5.2,13.6-10.4,20.6-15.4s14-9.9,21.3-14.4C66,214.9,53.6,226.7,41,238.3s-25.4,22.9-38.4,34s-26.1,22-39.5,32.7
						S-64,326-78.1,335.8z"/>
				</g>
			</g>
		</g>
		<g>
			<g>
				<defs>
					<path id="SVGID_11_" d="M122.4,45.1c1.2,2.1,0.5,4.7-1.6,5.9s-4.7,0.5-5.9-1.6l0,0l-0.1-0.2C98.3,57,82.6,66.3,67.9,76.9
						c4-1.6,8.1-2.9,12.2-3.9c12-2.6,21.3-0.8,26.9,5.4c2.1-1,4.7-0.1,5.7,2s0.1,4.7-2,5.7s-4.7,0.1-5.7-2c-0.8-1.6-0.5-3.5,0.8-4.8
						c-5.8-6.2-14.8-6.7-23.2-5.2c3,2.6,5.1,6.2,6,10.1c1.3,5.9-0.1,12.6-4.3,19.8c0.4,0.3,0.8,0.8,1.1,1.2c1.2,2.1,0.4,4.7-1.7,5.9
						s-4.7,0.4-5.9-1.7s-0.4-4.7,1.7-5.9c1.1-0.6,2.3-0.7,3.5-0.3c4-6.9,5.4-13.2,4.1-18.7c-0.9-4-3.2-7.6-6.5-10.1
						C74.2,75.9,68,78.1,62.2,81C55.6,86.3,49.5,91.5,44,96.6c6-3.5,14.1-6.2,22.3-3.3c0.3-1.1,1-2.1,2-2.7c2.1-1.2,4.7-0.4,5.8,1.6
						s0.4,4.7-1.6,5.8c-2.1,1.2-4.7,0.4-5.8-1.6c-0.3-0.5-0.4-1-0.5-1.6c-12.7-4.9-25.5,5.3-29.7,9c-7.2,7.3-13.9,15.2-19.9,23.4
						c6-3.6,18.8-9.5,30.6-4.3c0.3-0.4,0.7-0.7,1.2-1c2.1-1.2,4.7-0.5,5.9,1.6s0.5,4.7-1.6,5.9s-4.7,0.5-5.9-1.6l0,0
						c-0.6-1.1-0.7-2.3-0.3-3.5c-6.9-3-14.1-2-20,0c-0.5,5.4,1.5,10.7,5.6,14.3c1.3-2,4-2.5,6-1.1s2.5,4,1.1,6c-1.3,2-4,2.5-6,1.1
						c-0.5-0.4-1-0.9-1.3-1.4c-0.5-0.9-0.7-2-0.4-3.1c-4.4-3.7-6.8-9.3-6.6-15.1c-3.8,1.5-7.4,3.4-10.7,5.8
						c-3.2,4.5-5.9,8.8-8.3,12.9c-2.2,3.7-4.1,7.3-5.8,10.8v-8c0.2,1.4,0.4,2.7,0.5,3.8c1.3-2.4,2.6-4.8,4.1-7.3
						c8.3-14,18.2-26.9,29.5-38.6l0,0c0,0,0.5-0.6,1.4-1.4c1.3-1.3,2.7-2.7,4-4c-0.2-2.3-1.8-19-12.5-27.2c-0.2,0.2-0.4,0.3-0.6,0.4
						c-2.1,1.2-4.7,0.4-5.9-1.6c-1.2-2.1-0.4-4.7,1.6-5.9c2.1-1.2,4.7-0.4,5.9,1.6c0.8,1.3,0.7,3,0,4.3c2.9,2.3,5.3,5.1,7.1,8.3
						C35.8,75.2,38.4,68,46,66.1c-0.4-2.3,1.2-4.5,3.5-4.9s4.5,1.2,4.9,3.5c0.4,2.3-1.2,4.5-3.5,4.9c-1.8,0.3-3.5-0.5-4.4-2.1
						c-3.7,0.9-6.8,3.5-8.3,7c-1,2-1.7,4.2-2,6.5c1.1,2.2,1.9,4.4,2.6,6.7c1,3.2,1.6,6.5,2,9.8c6.5-6.2,13.3-12,20.3-17.5v-0.1
						l0.3-0.1c10.7-8.2,22-15.6,33.7-22.2c0.7-1.1,6.9-11.1,5.3-18.1c-2.4,0.3-4.5-1.4-4.7-3.8c-0.3-2.4,1.4-4.5,3.8-4.7
						c2.4-0.3,4.5,1.4,4.7,3.8c0.2,1.7-0.6,3.4-2.1,4.2l-0.2,0.1c1.4,5.9-2.1,13.4-4.2,17.1c5.3-2.9,10.8-5.7,16.6-8.5
						c-0.3-2.3,1.3-4.5,3.7-4.8C119.8,42.6,121.5,43.5,122.4,45.1L122.4,45.1z M16.3,163.5c-0.8,2.2,0.3,4.7,2.5,5.5
						s4.7-0.3,5.5-2.5s-0.3-4.7-2.5-5.5c-1.2-0.4-2.5-0.3-3.6,0.3c-0.4,0.2-0.8,0.6-1.1,0.9c-6.2-2.5-12.3-0.8-17,1.8v1.7
						C4.4,163.1,10.3,161.2,16.3,163.5z"/>
				</defs>
				<clipPath id="SVGID_12_">
					<use xlink:href="#SVGID_11_"  style="overflow:visible;"/>
				</clipPath>
				<g class="st14">
					<path class="st15" d="M-14.9,196.2c0,0,9.9-91.5,131.3-148.6"/>
					<path class="st15" d="M-0.1,153c0,0-0.3-24.3-15.8-30.1"/>
					<path class="st15" d="M13.6,130.3c0,0,19.2-14.8,35.7-5.4"/>
					<path class="st15" d="M40.3,99c0,0-1-20-13.9-28.8"/>
					<path class="st15" d="M61.5,80.7c0,0,34.5-18.7,47,0.9"/>
					<path class="st15" d="M95.7,58.2c0,0,9-13.6,4.5-21.4"/>
					<path class="st15" d="M35.5,81c0,0,1-13.4,12.9-14.7"/>
					<path class="st15" d="M-8,170.7c0,0,13.6-14.4,26.8-6.9"/>
					<path class="st15" d="M25.8,123.8c-0.9,7,2.4,13.8,8.4,17.4"/>
					<path class="st15" d="M80.8,73.7c0,0,16,10,1.3,32.5"/>
					<path class="st15" d="M34.5,104.8c0,0,16.8-17.8,33.3-10"/>
					<path class="st16" d="M24,162.8c1.2,2.1,0.4,4.7-1.6,5.8s-4.7,0.4-5.8-1.6c-1.2-2.1-0.4-4.7,1.6-5.8
						C20.2,160.1,22.8,160.8,24,162.8L24,162.8z"/>
					<path class="st16" d="M39.3,139c1.2,2.1,0.4,4.7-1.6,5.8c-2.1,1.2-4.7,0.4-5.8-1.6c-1.2-2.1-0.4-4.7,1.6-5.8
						C35.5,136.2,38.1,136.9,39.3,139L39.3,139z"/>
					<path class="st16" d="M54.3,123.6c1.2,2.1,0.5,4.7-1.6,5.9s-4.7,0.5-5.9-1.6c-1.2-2.1-0.5-4.7,1.6-5.8
						C50.5,120.9,53.1,121.6,54.3,123.6L54.3,123.6z"/>
					<path class="st16" d="M53.9,63.2c1.2,2.1,0.4,4.7-1.6,5.8c-2.1,1.2-4.7,0.4-5.8-1.6c-1.2-2.1-0.4-4.7,1.6-5.8
						C50.1,60.4,52.7,61.2,53.9,63.2L53.9,63.2z"/>
					<path class="st16" d="M28,66.3c1.2,2.1,0.4,4.7-1.6,5.8s-4.7,0.4-5.8-1.6c-1.2-2.1-0.4-4.7,1.6-5.8
						C24.2,63.5,26.8,64.2,28,66.3L28,66.3z"/>
					<path class="st16" d="M85.4,105.2c1.2,2.1,0.4,4.7-1.6,5.8s-4.7,0.4-5.8-1.6c-1.2-2.1-0.4-4.7,1.6-5.8
						C81.6,102.4,84.2,103.2,85.4,105.2L85.4,105.2z"/>
					<path class="st16" d="M74.2,92.2c1.2,2.1,0.5,4.7-1.6,5.9c-2.1,1.2-4.7,0.5-5.9-1.6c-1.2-2.1-0.5-4.7,1.6-5.9l0,0
						C70.4,89.5,73,90.2,74.2,92.2z"/>
					<path class="st16" d="M112.7,80.2c1.2,2.1,0.4,4.7-1.6,5.8s-4.7,0.4-5.8-1.6c-1.2-2.1-0.4-4.7,1.6-5.8
						C108.8,77.4,111.5,78.1,112.7,80.2C112.6,80.2,112.6,80.2,112.7,80.2z"/>
					<path class="st16" d="M103.7,33.1c1.2,2.1,0.4,4.7-1.6,5.8s-4.7,0.4-5.8-1.6c-1.2-2.1-0.4-4.7,1.6-5.8
						C99.9,30.4,102.5,31.1,103.7,33.1L103.7,33.1z"/>
					<path class="st16" d="M122.4,45.1c1.2,2.1,0.4,4.7-1.6,5.8s-4.7,0.4-5.8-1.6c-1.2-2.1-0.4-4.7,1.6-5.8
						C118.6,42.3,121.2,43,122.4,45.1L122.4,45.1z"/>
				</g>
			</g>
		</g>
		<polygon class="st12" points="202.8,287.4 472.8,287.4 432.4,379.1 224.9,379.1 196.4,286.2 		"/>
		<polygon class="st13" points="458.4,271.1 421.2,337.6 244.4,337.6 209.4,272.8 167.1,272.8 217.8,393.9 217.8,393.9 217.8,393.9 
			452.5,393.9 496.8,271.1 		"/>
		<polygon class="st12" points="217.8,393.9 237.3,447.4 251.5,447.4 251.5,393.9 		"/>
		<polygon class="st12" points="452.5,393.9 437.9,447.4 421.9,447.4 421.9,393.9 		"/>
		<path class="st17" d="M385.2,90.2c1.8-2.5,2.1-5.7,0.8-8.5c-2.2-4.8-9.3-7.2-16-4.5s-12.6-1.1-22,6.4s-9.5,8.4-13.8,21.5
			c-2.9,8.7-8.6,14.1-11.5,18.6c-2.9,4.5-12.4,13.6-22.5,15.7s-29,25.4-26.7,31.9s27.2,20.1,52.7,20.1s37.9-24.9,38.7-36.4
			S385.2,90.2,385.2,90.2z"/>
		<path class="st16" d="M402.5,242.7c-10.2,0-158,23.2-158,23.2s-50.5,67.4,10.9,79c4.5,0,13.7,0.9,26,1.9l-8.9,21.1l35.8,24.5
			c0,0,20.2-18.4,34.7-43.1c43.5-0.6,92.2-7.6,120.3-33.6C495,286.7,412.6,242.7,402.5,242.7z"/>
		<path class="st18" d="M340.4,145.6c0,0-17.5-14-40,0s-93,96.4-49,126.7s134.5-2.2,134.5-2.2l4.7-6c0,0,53.8,11,67.8,7
			s25.5-30.1-7.5-65.3l-9.6-9.7l-30.4,21.6L377.4,161C377.4,161.1,358,176.1,340.4,145.6z"/>
		<path class="st19" d="M340.4,145.6c3.5-5.7,5.8-11.9,7-18.5c0,0-11.9-5.8-8.4-16.2c2.3-6.2,11.9-1.6,11.9-1.6s-4.7-11.9,7.2-17.7
			s23-9.3,27-1.6s4.9,10.5,4.9,10.5s20.2,5.8,22.4,11.3s-6.8,39.3-4.9,42s33.8,42.1,33.8,42.1l-30.4,21.6l-33.5-56.7
			c0,0-11.9,8.9-23.6,0S340.4,145.6,340.4,145.6z"/>
		<path class="st20" d="M292.3,313.6c0,0-17.3-13.6-27.2-13.2s-69.1,31.7-68.8,37.8s58.9,6.9,58.9,6.9S273.1,315.1,292.3,313.6z"/>
		<path class="st20" d="M272.5,368c0,0-25.1,10.1-17.1,24.5s35.5,62,45,60.9s8-60.9,8-60.9L272.5,368z"/>
		<path class="st21" d="M385.5,283.6c0,0,32-6,55.9,6.6"/>
		<path class="st21" d="M390.6,264.2c0,0,50.7,13.4,67.8,7s16.3-25.7,11-37.3"/>
		<path class="st21" d="M410.9,217.8c0,0,3.8,15.4,12.6,26.6"/>
		<path class="st21" d="M377.4,161.1c0,0-2.8-11.5,5.3-15.9c0,0,0.5,12.4,7,14.5"/>
		<path class="st21" d="M385.5,88.6c0,0,11.1,20.3,8.1,39.9c-1.7,10.9-17.8,10.1-28.8,1.9"/>
		<path class="st21" d="M343.7,110.4c0,0-3.7,7.4,3.2,12.3"/>
		<path class="st21" d="M347.9,113.4c0,0-1.1,0.9-0.2,3.6"/>
		<path class="st21" d="M393.1,111.3c2.5,3.3,5.9,5.9,9.8,7.4"/>
		<path class="st21" d="M400,118.1c0,0-1.1,7.3,0.8,11.4"/>
		<path class="st21" d="M382.7,145.2c0,0,6.4-12.9,17.4-18.2"/>
		<path class="st21" d="M202.8,340c0,0,40-28.3,70-38"/>
		<path class="st21" d="M227,343.9c0,0,3.3-9.7-3.2-16.9"/>
		<path class="st21" d="M247.6,333.5c0,0,2.6,6.6,0,11.3"/>
		<path class="st21" d="M258.5,377c0,0,18.6,43.5,46,70.4"/>
		<path class="st21" d="M307.4,428.8c0,0-10.8-0.9-17.1,2.4"/>
		<path class="st21" d="M308.1,417c-3.9-1.3-8.1-1.1-11.9,0.5"/>
		<path class="st21" d="M308.4,405.9c0,0-4.5-2.9-11.2-1"/>
		<path class="st21" d="M379.8,100.4c0,0,12.2,15.7,1.4,13.8"/>
		<path class="st21" d="M373.3,119.5c0,0,4.4,4.8,12.4,3.2"/>
		<path class="st21" d="M361.8,111.3c0,0,2.9-5.7,11.5-5.9"/>
		<path class="st21" d="M359.1,104.4c0,0,4.1-7,12.2-6.5"/>
		<path class="st21" d="M385.6,101.2c0.9-1.4,2.6-2.2,4.2-1.9"/>
		<path class="st21" d="M380.5,95.9c1.5-2.3,4.2-3.6,7-3.2"/>
		<path class="st22" d="M360.4,119.5c0,2.7,2.2,4.9,4.9,4.9c2.7,0,4.9-2.2,4.9-4.9s-2.2-4.9-4.9-4.9l0,0
			C362.6,114.6,360.4,116.8,360.4,119.5z"/>
		<path class="st21" d="M375,206c2.5,15.9,3.2,32,1.9,48"/>
		<path class="st23" d="M344.2,275.7v-38.6c13.5-4.3,28-4.3,41.4,0v53.6l-41.4-1.4V275.7z"/>
		<path class="st19" d="M251.5,272.3c24.1,18.3,46.3,20.9,85.7,22.1c30.2,0.9,42.5,0.7,48.7-2.4c2.3-1.2,3.2-4,2.1-6.2
			c-0.4-0.8-1-1.4-1.7-1.9c-0.2-0.1-0.4-0.2-0.7-0.3c0,0,6.3-6.8,3.1-9.4c0,0,6.6-4.4,2-10.1c0,0,3.4-4.8,3-9.2s-7.5-6.4-7.5-6.4
			s-1.3,5.2-9.2,5.4s-29.6-0.4-29.6-0.4s-3.2-1.2-3.3-6.1c0,0-6.8-1.5-8.8,6c0,0-22.9-1.6-43.5-14.8
			C291.6,238.6,256.6,242.5,251.5,272.3L251.5,272.3z"/>
		<path class="st21" d="M308.3,392.5c36.3-32.4,66.7-99.1,66.7-99.1c-93.9,6.9-123.5-21.1-123.5-21.1s2.7-26.9,40.1-33.8
			c0,0-4.2-22.7-16-32.7"/>
		<path class="st21" d="M376.2,263.7c0,0,15.3,4.2,17.2-3.7"/>
		<path class="st21" d="M375.2,274.9c0,0,15.3,1.7,16.7-4.5"/>
		<path class="st21" d="M370.1,284.4c0,0,12.5,2.3,16.2-1.8"/>
		<path class="st21" d="M302.1,306c0,0-24.6,46-29.7,62.1"/>
	</g>
</g>
</svg>
