<?xml version="1.0" encoding="utf-8"?>
<!-- Generator: Adobe Illustrator 24.0.1, SVG Export Plug-In . SVG Version: 6.00 Build 0)  -->
<svg version="1.1" id="Capa_1" xmlns="http://www.w3.org/2000/svg" xmlns:xlink="http://www.w3.org/1999/xlink" x="0px" y="0px"
	 viewBox="0 0 778.9 460.3" style="enable-background:new 0 0 778.9 460.3;" xml:space="preserve">
<style type="text/css">
	.st0{fill:#EDEDED;}
</style>
<g id="Capa_2_1_">
	<g id="BACKGROUND_2">
		<path class="st0" d="M22.2,120.8c-0.5,0.5-1.3,0.5-1.9,0c0,1.7-1.9,2.5-1.9,5.1c-4.6,0.8-6.5,4.2-11.2,5c0.9,4.2-0.9,6.8-5.6,6.8
			c0.9,3.4,4.7,6.7,8.4,7.6c-1.9,5.9,5.6,13.5-5.6,4.2c-12.1,8.4,3.7,8.4,4.7,13.5c1.9-1.7,4.7-1.7,5.6-1.7
			c-0.8,3.4-3.9,5.9-7.4,5.9c0,2.5-0.9,1.7,0.9,4.2c-3.7,5,7.4,12.6,11.2,10.9c3.7,4.2-4.6,13.5-8.4,15.2c0.9,0.9,2.8,0.9,4.7,1.7
			c1.9-5.9,7.4-8.4,12.1-13.5c2.8-3.4,2.8-8.4,7.4-11.8c0,2.5,1.9,0.8,0,4.2c2.8,0,4.7,0,7.5-1.7c0,0.8,0,0.8,0.9,1.7
			c4.7-6.7,7.5,0,13-1.7c0,1.7,0.9,3.4,0.9,5.1c7.5-0.9,14,8.4,15.8,13.5c0.9-0.9,2.8,0,3.7-0.9c0.9,4.2,8.4,16,12.1,15.2
			c2.8,4.2,0,8.4,5.6,8.4c0,0,1.9,2.5,0.9,2.5c-3.7,2.5-2.8,17.7,0.9,20.2c0.9,2.5,2.8,4.2,5.6,5.9c-0.9,5.9,7.4,15.2,10.2,19.4
			c4.3,6.2,9.3,11.9,14.9,16.9c-0.9-9.3-11.2-16-13-24.4c4.7,2.5,15.8,15.2,18.6,19.4c1.9,2.5,2.8,6.7,4.7,10.1
			c1.9,0.8,8.4,3.4,11.2,5.1c0.9-0.8,2.8-1.7,3.7-2.5c2.8,5.1,7.4,0.8,11.2,5.1c0.9,0,0.9-0.9,1.9-1.7c1.9,5.1,6.5,4.2,9.3,7.6h1.9
			c2.8,3.4,6.5,8.4,13,7.6c0-2.5,0.9-1.7,1.9-3.4c1.9,2.5,3.7,3.4,5.6,5c1.9-4.2-2.8-5.9-5.6-8.4c-0.9,0.8-2.8,1.7-2.8,2.5
			c-2.5-2.4-3.9-5.8-3.7-9.3c-0.9,0.8-1.9,1.7-2.8,1.7c-1.9-2.5-3.7-5-7.4-5.9c0.9-2.5,0-5.9,0.9-7.6c-1.9,0.8-3.7,0.8-5.6,3.4
			l-2.8-2.5c-7.4,11-26.1-12.6-10.2-18.5c0,0.8,0,0.8,0.9,1.7c2.8-4.2,8.4-0.8,14-2.5c0-3.4,0.9-4.2,4.6-5.1c0,1.7,0.9,2.5,0.9,4.2
			c0,0,1.9-1.7,1.9-0.8c5.6,2.5,1.9,8.4,8.4,11.8c6.5-3.4-4.6-13.5,4.6-17.7c3.7,0,9.3-8.4,6.5-11.8c2.8-4.2,6.5-5.1,9.3-10.1
			c1.9-3.4-0.9-8.4,6.5-10.1c0.9,1.7,2.8,2.5,3.7,4.2c3.7-0.8,3.7-5.1,1.9-8.4h3.7c-0.1,0.9,0.2,1.9,0.9,2.5c4.7,0.8,13,0.8,7.4-5.9
			c-2.8,2.5-12.1-1.7-15.8-2.5c1.9-7.6,9.3-5.1,13-1.7c3.7-1.7,5.6-5.9,9.3-7.6c0,4.2-5.6,18.5,5.6,11.8c0,1.7,2.8,3.4,2.8,5.1
			c10.2-4.2,0-5.1-0.9-7.6c-2.8-5.1-2.8-9.3-5.6-13.5c0-0.9-2.8,0-3.7-0.9c0-0.8,0.9-4.2,0-5.1s-5.6-3.4-6.5-4.2
			c-2.8-3.4-2.8-8.4-7.4-9.3c-2-2.6-2.7-6.1-1.9-9.3c-7.4-0.8-3.7,6.7-9.3,5.9s-3.7-11.8-10.2-11.8c-10.2-1.7-2.8,21.1-2.8,27.8
			h-3.7c0,2.5,0.9,5.1,0.9,7.6s-1.9,5.9-1.9,7.6c-5.6,0.8-8.4-3.4-6.5-7.6c-7.4-0.8-1.9-10.1-12.1-8.4c-2.8-5-12.1-8.4-17.7-13.5
			c1.9-5.1,0-10.1,4.6-16c5.6-5.1,10.2-5.1,10.2-13.5c1.4,0.2,2.7,0.8,3.7,1.7c0.9-1.7,1.9-1.7,2.8-2.5c0-3.4,0-2.5,1.9-5
			c0,0.8,0.9,2.5,0.9,3.4c1.9-0.9,2.8-2.5,3.7-4.2c-0.9-0.8-1.9-0.8-2.8-1.7c4.6-4.2,2.8-12.6-3.7-14.3c0,5.9,2.8,10.1-2.8,13.5
			c-2.8-1.7-4.6-2.5-7.4-2.5c0.9-2.5-0.9-5.1,0-6.7c-1.5-0.7-3.1-1-4.7-0.8c-0.9-3.4-2.8-12.6-6.5-13.5c0.1-2.4,0.7-4.7,1.9-6.7
			c3.7,0,7.4-1.7,6.5-5.9c-12.1-5.1-8.4,15.2-11.2,20.2c2.8,4.2,7.4,10.1,3.7,15.2c-2.8-3.4-3.7-8.4-8.4-10.1c-1,3.4,0.1,7,2.8,9.3
			c-3.7,3.4-14.9,1.7-16.8-3.4c-1.9,0-4.7-0.8-6.5-0.8c0,1.7-0.9,4.2-0.9,5.9c-4.7-1.7-7.4,3.4-13,0c0-0.8,0-0.8,0.9-1.7
			c-6.5,1.7-9.3-5.9-14.9-7.6c-6.5-1.7-11.2,0.8-16.8-2.5c-0.9,0-0.9,0.8-1.9,1.7c-0.8-0.8-1.7-1.4-2.8-1.7l-0.9,1.7
			c-5.6,1.7-11.2,1.7-15.8,4.2c-0.7-1.3-1.7-2.4-2.8-3.4c-4.7-1.7-11.2-1.7-15.8-1.7c-0.9,0-1.9-1.7-2.8-1.7s-0.9,0.8-1.9,1.7
			c-0.9-3.4-3.7-4.2-7.5-3.4v-1.7c-0.9,0-0.9,0.8-1.9,0.8c0-0.5-0.4-0.8-0.9-0.8c0,0,0,0-0.1,0c-0.9,0-1.9,0.8-2.8,0.8
			C25.9,125,22.2,122.5,22.2,120.8"/>
		<path class="st0" d="M90.2,114.9v2.5c3.7,0.8,4.7,3.4,7.4,6.8c3.7-1.7,3.7-8.4,5.6-11c3.7-4.2,6.5-5,11.2-6.7
			c-1.9-6.7-6.5-1.7-11.2-2.5c-4.7-1.7-8.4-11-12.1-1.7c3.7,2.5,4.7,6.7,5.6,10.1c-1.9,0-4.7,1.7-5.6,1.7"/>
		<path class="st0" d="M108.8,113.2c0,1.7-1.9,2.5,0,4.2c-1.4,0.6-2.6,1.5-3.7,2.5c0.9,0,2.8,0.8,3.7,0c0,1.7,0.9,5.1,0,6.7
			c4.7-2.5,11.2-1.7,14.9,0c-3.7,3.4-9.3,2.5-14,3.4c2.6,2.1,5.9,3.3,9.3,3.4c-0.9,1.7,0.9,2.5,0.9,4.2c5.6,0,7.4-5.1,12.1-5.1
			c4.7-0.8,8.4,1.7,12.1,3.4c-0.9-3.4-2.8-6.7,0-10.1c-10.2-2.5-5.6-15.2-9.3-21.1c-6.5,1.7-2.8,9.3-4.7,13.5
			c-2.8-2.5-1.9-7.6-6.5-9.3c0,2.5-1.9,3.4-0.9,5.9c-5.6-2.5-13-6.7-14.9-2.5"/>
		<path class="st0" d="M96.7,84.6c0,0.8-0.9,2.5-0.9,3.4l1.9-0.8c0.9,1.7,0.9,3.4,1.9,5.1c4.7-4.2,3.7-8.4,10.2-11.8
			c-0.9-0.8-0.9-1.7-1.9-3.4c0.9,0,3.7-0.8,4.7-0.8c0,1.7,1.9,3.4,2.8,4.2c3.7-5-5.6-11-8.4-3.4C101.3,75.3,99.5,81.2,96.7,84.6"/>
		<path class="st0" d="M107.8,87.1c-2.9,0.9-4.8,3.7-4.7,6.7c3-1.2,5.6-3.2,7.5-5.8c-0.9-0.8-1.9-0.8-2.8-1.7
			c0.9-1.9,2.2-3.6,3.7-5.1c-2.8-0.8-2.8,0.8-3.7,2.5"/>
		<path class="st0" d="M115.3,85.4c-1.9,0.8-2.8,0.8-3.7,2.5c0.9,0,0.9,0.8,1.9,1.7c-1.9,0.8-3.7,4.2-4.7,4.2
			c3.7,3.4,8.4,1.7,13,0.8c-2.8,1.7-2.8,4.2-4.7,5c4.7,1.7,8.4-0.8,10.2-4.2c5.6,3.4,8.4,0.8,13,0.8c-0.9-3.4-4.6-6.7-8.4-5.1
			c0,0.8,0.9-2.5,1.9-3.4c-1.9,0-3.7-0.8-5.6-0.8c-0.8-2-1.7-4-2.8-5.9c-2.8,4.2,0.9,7.6-0.9,11c-3.7-1.7-5.6-5.1-8.4-6.7"/>
		<path class="st0" d="M117.2,71.9c0,1.7,1.9,4.2,2.8,5.9c4.7-0.8,4.7-5.1,7.4-7.6c-3.7-5-8.4,2.5-13,0.8"/>
		<path class="st0" d="M120.9,66c3.7,0.8,4.7,0,7.5,1.7c0-0.8,0.9-2.5,0.9-3.4c-3.7-1.7-5.6-0.8-7.4,2.5"/>
		<path class="st0" d="M135.8,56.8c-0.7,1.3-1.1,2.7-0.9,4.2h3.7c0,0.8,0.9,3.4,0.9,4.2c-0.9,0-1.9,1.7-3.7,2.5c2.8,0,6.5,0.8,9.3,0
			c1.9,2.5,2.8,4.2,2.8,5.9h-5.6c1.9,5.1,9.3,2.5,9.3-1.7s-7.4-5.9-7.4-10.1c-0.9-1.7-4.6-4.2-5.6-4.2"/>
		<path class="st0" d="M133,72.8v3.4h1.9v4.2c5.6-1.7,2.8-5.9-0.9-6.7"/>
		<path class="st0" d="M146,48.3c0,0.8-0.9,0.8-0.9,2.5c0,0.8,1.9,3.4,1.9,4.2c4.6-1.7,4.6-4.2,0.9-6.7"/>
		<path class="st0" d="M152.5,63.5l-2.8,2.5c2.8,0.7,5,3,5.6,5.9h-0.9c4.7-1.7,2.8-6.7-0.9-8.4"/>
		<path class="st0" d="M159.1,74.5h-2.8c0,0.9,0.3,1.8,0.9,2.5c2.8-0.8,2.8-1.7,2.8-3.4"/>
		<path class="st0" d="M166.5,75.3c-0.5,0.4-0.8,1-0.9,1.7c3.7,0,1.9,0.8,3.7-1.7h-1.9"/>
		<path class="st0" d="M136.7,83.7c0.9,0,0.9,0.8,1.9,0c1.9,3.4,2.8,1.7,4.6,3.4c0-0.8-0.9-1.7-0.9-2.5l2.8,1.7
			c0-6.7,4.6-5.1,7.4-0.8c1.9,4.2-1.9,6.7-1.9,11c-2.8-0.8-4.6-2.5-4.6-5.9c-0.9,0.8-2.8,0-4.7,0.8c-0.9-1.7-2.8-4.2-3.7-6.7"/>
		<path class="st0" d="M156.3,92.2c0,0.8-0.9,0.8-1.9,1.7c0,1.7,0.9,2.5,0,4.2c9.3,5,5.6-7.6,5.6-10.1c-2.8,0.8-0.9,1.7-1.9,3.4"/>
		<path class="st0" d="M151.6,104.8v5.9c4.6,3.4,1.9,7.6-0.9,11c-4.6-3.4-14-7.6-10.2-12.6c0.9,2.5,2.8,3.4,3.7,5.9
			c3.7-4.2-5.6-10.1,3.7-11c0.9,0,0.9,0.8,0.9,1.7C149.8,105.5,150.7,105.2,151.6,104.8"/>
		<path class="st0" d="M156.3,80.4c-0.9,0.8-0.9,0-1.9,1.7c0.9,0.8,2.8,2.5,2.8,3.4c8.4-1.7,5.6,6.7,8.4,11
			c2.8,3.4,10.2,4.2,14.9,3.4c0.1-1.2,0.4-2.3,0.9-3.4c2.8,0,8.4,2.5,10.2,0.8c3.7-3.4-2.8-7.6-6.5-8.4c-2.8,2.5-6.5,3.4-10.2,4.2
			c-14.9-12.6,10.2-8.4,17.7-5.9c0.9-0.8,1.9-1.7,1.9-2.5s-1.9-0.8-1.9-1.7c-0.9-0.8,0.9-1.7,0.9-1.7c0-0.8-1.9-1.7-2.8-2.5
			c12.1-2.5,7.4-13.5,6.5-21.1c4.6,0,9.3,0,7.4-5.1c3.7-2.5,11.2-5.1,6.5-10.1c1.6-1.7,3.5-3.1,5.6-4.2c2.8-0.8,6.5-5.9,10.2-6.7
			c-2.8-2.5-6.5-0.9-10.2,0.8c3.7-5.9,19.6-9.3,17.7-16c-1.9,0-4.6,0-5.6,0.8c-2.8-8.4-6.5-11.8-14-2.5c-2.8-5.9-13-7.6-14.9-1.7
			c-0.9-0.8-2.8-0.8-3.7-1.7c0,1.7-0.9,3.4,0.9,5.9c-3.7,1.7-7.4,0-10.2-2.5c-1.1,2.5-0.7,5.4,0.9,7.6c-0.9,0-1.9-0.8-2.8-0.8
			c-1.9,1.7-0.9,1.7-3.7,0.8c-1.8,0.6-3.7,0.9-5.6,0.8c-8.4,5.1-7.4,8.4-5.6,16c2.8,0,4.6,0.8,6.5,0c7.4,8.4,14.9-1.7,22.3-1.7
			c-6.5,10.1-26.1,11.8-31.6,2.5c-1.9,0.8-2.8,0-3.7,0.8c0-2.5-1.9-5.1-1.9-6.8c-1.9,1.7-5.6,10.1-5.6,12.6
			c-0.9,5.1,4.7,7.6,2.8,12.6c3.7-0.8,4.6,0,6.5-2.5c1.9,6.7-6.5,7.6,1.9,13.5c3.7-3.4,9.3-5,9.3-11c0.9-4.2-5.6-8.4,0-11.8
			c0.9,3.4,2.8,6.8,3.7,9.3c8.4,2.5-5.6,8.4-4.6,13.5c-0.9,0-1.9-0.8-2.8,0c6.5,0,11.2,3.4,9.3,9.3c-2.8-2.5-3.7-5-7.4-6.7
			c0.9,0.8,0.9,4.2,1.9,5.9c-3.7,2.5-6.5,6.7-10.2,2.5c0,0.8-0.9,1.7-1.9,3.4c-1.9-2.5-4.6-3.4-8.4-3.4c0-0.8,0.9-0.8,0.9-1.7"/>
		<path class="st0" d="M175.8,105.6c-2.8,1.7-2.8,4.2-4.6,6.7c-4.7,9.3,0.9,6.7,4.6,13.5c-0.9,0.8-2.8,0.8-3.7,1.7
			c3.7,1.7,7.4,0.8,10.2-2.5c0.9,5.9,6.5,6.7,10.2,2.5c0.9,3.4,1.9,3.4,1.9,5.9c4.6-1.7,7.4,3.4,2.8,6.7c1.9-0.8,3.7-0.8,5.6-1.7
			v4.2c0.9-0.8,1.9-1.7,1.9-2.5c6.5,10.1-1.9,7.6-7.4,12.6c0.9,0.8,2.8,3.4,5.6,4.2c-0.9,0-2.8,0.9-3.7,0.9c2.9,1.6,6,2.8,9.3,3.4
			c0.9,4.2,3.7,9.3,8.4,5.9c1.9,3.4,3.7,6.7,8.4,5.1c-0.9-2.5-3.7-5.9-5.6-8.4c1.9,1.7,4.6,2.5,6.5,3.4c2.8-5-7.4-15.2-7.4-20.2
			c2.8,0.8,5.6,3.4,7.4,5.9l3.7-6.7c-5.6-1.7-16.8-11.8-6.5-11.8c-0.9-4.2-3.7-9.3-9.3-7.6c-1.9-3.4-12.1-12.6-15.8-11.8
			c3.7-9.3-7.4-2.5-8.4,2.5c-7.4-6.7,3.7-5.9,5.6-10.1c-2.8-2.5-6.5-1.7-8.4,1.7c-1.1-0.8-1.8-2-1.9-3.4c-5.6,2.5-6.5,11.8-2.8,14.3
			c-10.2,7.6-2.8-12.6-1.9-15.2c-0.5-0.5-1.3-0.5-1.9,0"/>
		<path class="st0" d="M177.7,152.8c0,1.7,0,4.2-0.9,5.9c0.7,0.1,1.4,0.4,1.9,0.8c-11.2,4.2,2.8,9.3,0.9,0.8c6.5-1.7,8.4,3.4,13,2.5
			c-3.7-3.4-10.2-5.1-9.3-11c-2.8-1.7-2.8,0-3.7,0.8"/>
		<path class="st0" d="M182.3,164.6c0.9,0.9,0,1.7,0,3.4c2.8-0.9,1.9-0.9,2.8-2.5l-1.9-0.9"/>
		<path class="st0" d="M190.7,167.1c0,0.9-1.9,1.7-0.9,3.4C194.4,169.7,191.6,168.8,190.7,167.1"/>
		<path class="st0" d="M194.4,180.6c0,1.7-0.9,1.7-0.9,3.4c1-0.3,2-0.9,2.8-1.7C196.3,181.5,194.4,180.6,194.4,180.6"/>
		<path class="st0" d="M191.6,189.9c-0.9,1.7-1.9,2.5-1.9,4.2c1.6-0.4,3.2-1,4.7-1.7C194.4,189.9,192.6,190.7,191.6,189.9"/>
		<path class="st0" d="M194.4,154.5c-0.9,6.7,4.6,3.4,0.9,0"/>
		<path class="st0" d="M197.2,162.9c-0.9,0.8-3.7,0.8-0.9,4.2C200,165.5,197.2,164.6,197.2,162.9"/>
		<path class="st0" d="M196.3,140.2c0.9,1.7-0.9,3.4,2.8,3.4c0.5,0,0.9-0.3,0.9-0.8c0,0,0,0,0-0.1c-0.9-0.8-0.9-2.5-1.9-3.4"/>
		<path class="st0" d="M191.6,136.8c0.9,1.7,0,3.4,2.8,1.7c0-1.7-1.9-1.7-1.9-2.5"/>
		<path class="st0" d="M183.3,277.5c-0.9,0.9-1.9,2.5-3.7,3.4c4.3,1,8.6,1.5,13,1.7c0.9,5,5.6,5.9,10.2,4.2
			c-1.9-1.7-6.5-8.4-8.4-9.3s-4.7,0.9-7.4-0.8"/>
		<path class="st0" d="M204.6,285.9c-1.1,0.8-1.8,2-1.9,3.4c2.8,0,3.7,0.8,5.6,0.8c2.8,0,7.4,0,10.2-2.5c-2.8-2.5-9.3-3.4-13-3.4"/>
		<path class="st0" d="M203.7,280.9c0.9,0.9,0,2.5,2.8,0.9c0-1.7-0.9,0-1.9-0.9"/>
		<path class="st0" d="M199.1,275.8c0.9,1.7,0,1.7,0.9,2.5h0.9C201.9,276.7,200,276.7,199.1,275.8"/>
		<path class="st0" d="M195.4,273.3v2.5C197.2,275,195.4,274.1,195.4,273.3"/>
		<path class="st0" d="M192.6,269.1c0,1.7-0.9,2.5-0.9,3.4c1.9-0.8,2.8-0.8,3.7-2.5c0-0.8-1.9-0.8-1.9-0.8"/>
		<path class="st0" d="M219.6,291c0,1.7-1.9,1.7,0,3.4c1.9-0.8,1.9-1.7,2.8-2.5c-0.9-0.9-2.8-0.9-2.8-1.7"/>
		<path class="st0" d="M206.5,302.8c-0.9,0.8-0.9,0.8-0.9,2.5c0,0-2.8-1.7-1.9-1.7c-2.8,3.4-3.7,7.6-4.6,11.8h-3.7
			c1.9,4.2,2.8,7.6,0.9,10.1c-5.6,0.8-3.7,5-5.6,9.3c4.7,4.2,2.8,11.8,5.6,16.9l6.5,5.9c2.8,1.7,2.8,6.7,6.5,1.7
			c2.8,3.4,4.6,6.7,0.9,9.3c12.1,6.8-10.2,28.6,0,38.8h-1.9c-2.8,3.4-3.7,10.1-2.8,14.3c-1.9,0-4.7,1.7-5.6,1.7
			c2.8,5-0.9,8.4,1.9,12.6c-1.9,4.2-0.9,9.3,0.9,12.6c0.9,0,1.9-0.9,2.8-0.9c0.9,6.7,10.2,8.4,14.9,12.6l1.9-1.7
			c-2.5-2.4-3.9-5.8-3.7-9.3c1-0.1,2,0.2,2.8,0.8c-6.5-8.4-5.6-10.1,2.8-17.7c-3.7-3.4-1.9-8.4-4.6-12.6c4.6-1.7,11.2-3.4,4.6-8.4
			c4.7-2.5,10.2,1.7,14-1.7c2.8-2.5,1.9-11-0.9-13.5c1.9,0,4.7-0.8,6.5-0.8c8.4,7.6,5.6-2.5,7.4-5.1c2.8-3.4,8.4-1.7,8.4-7.6
			c6.5-3.4-5.6-8.4,4.6-11.8c2.8,3.4,6.5,2.5,10.2,3.4c0-1.7,0.9-4.2,0-5.9c9.3-5.9,0.9-10.1,3.7-16.8c1.9-4.2,17.7-6.8,11.2-15.2
			c-1.9,0-1.9,0.8-2.8,1.7V334c-1.9,0-2.8,0.8-3.7,0.8v-1.7c-3.7,0.8-8.4,0-10.2-3.4c-3.7,0.8-7.5-1.7-11.2,1.7v-3.4
			c-0.9,0-1.9,0.9-2.8,0c-3.7-1.7-5.6-5-3.7-9.3c-0.9,0.8-2.8,0.8-2.8,1.7c0-0.8,0-3.4-0.9-4.2c-3.7,0.8-4.6,0.8-6.5-2.5
			c-0.9,0.8-1.9,0.8-2.8,1.7c-0.5-0.4-0.9-1-0.9-1.7c-0.9,0-1.9,0.8-2.8,0.8c-2-3.5-4.5-6.6-7.4-9.3c-0.9,0.8-4.7,1.7-5.6,1.7
			c0-0.8-0.9-2.5-0.9-3.4c0,1.7-1.9,3.4-1.9,5.1c-3.7-0.9-8.4-3.4-9.3-7.6c0,0.9-1.9,2.5-1.9,2.5"/>
		<path class="st0" d="M235.4,444.3c0,0-1.9,0.9-2.8,0c-0.9,2.5-0.9,2.5,0.9,4.2c0.9,0,4.6-0.9,5.6-0.9c0-1.7-1.9-3.4-2.8-4.2"/>
		<path class="st0" d="M403.8,385.4c-1.9,2.5,0,5.1,3.7,5.1c0,1.7,0.9,4.2,0.9,5.9c0.9,0,1.9-0.8,2.8-0.8s0.9,1.7,2.8,1.7
			c0-0.8,2.8-2.5,3.7-5c9.3,7.6,14.9,0,20.5-6.8c-0.9-0.8-1.9-3.4-3.7-3.4c2.8-2.5,5.6-5.1,10.2-5.9c-2.8-2.5-2.8-5.9-2.8-9.3
			c1.9-2.5,0.9-1.7,2.8-3.4l0.9,0.8c1.9-6.7,14-8.4,7.4-16c0.9,0,0.9-0.9,1.9-1.7c-5.6-2.5-1.9-7.6-3.7-12.6l1.9,1.7
			c0.2-1.3,0.9-2.5,1.9-3.4c0,0.8,0.9,0.8,0.9,1.7c0.9-0.8,0.9-2.5,1.9-2.5s0.9,0.9,2.8,0c3.7-5-1.9-9.3,6.5-12.6
			c1.2,0.6,2.4,0.9,3.7,0.8v-3.4c6.5-4.2,6.5-8.4,9.3-14.3c-3.7-0.9-7.5,0.9-9.3,4.2c-1.9-2.5-4.7-4.2-6.5-5.9
			c-1.8,0.7-3.7,1-5.6,0.8c0.9-3.4,3.7-5.9,6.5-1.7c1.9-0.8,2.8-1.7,4.6-1.7c-2.8-4.2-7.4-4.2-9.3-0.8c-8.4-3.4-23.3-24.4-20.5-32.9
			c0.4,1.1,0.7,2.2,0.9,3.4v-5c3.7,2.5,11.2,14.3,11.2,19.4c3.7,0,9.3,9.3,11.2,12.6c2.8,1.7,2.8,0.9,4.6,4.2
			c3.7-1.7,8.4-2.5,12.1-3.4c3.7-1.7,1.9-8.4,8.4-2.5c2.8-2.5,4.6-5.9,3.7-9.3c0.9-0.8,1.9-0.8,2.8-2.5c0-2.5-0.9-5.9-5.6-7.6
			c-0.9,1.7-2.8,2.5-2.8,3.4c-1.9-0.8-12.1-4.2-12.1-5c-3.7-3.4-4.7-11.8,0.9-5.9c3.7-0.8,11.2,5.9,14,7.6c3.7,0.8,7.5-0.8,10.2-3.4
			c0,1.7,1.9,2.5,1.9,5c3.7-1.7,4.7-1.7,3.7-5c2.9,0.9,4.8,3.7,4.7,6.7c0.9-0.8,3.7-0.8,4.7-1.7c0.6,1,1,2.2,0.9,3.4
			c0.9,0,1.9,0,1.9-0.9c0,4.2,0.9,8.4,6.5,4.2c1.9,4.2-2.8,16,6.5,15.2c0.9,5.9,1.9,9.3,4.7,12.6c3.7-5.1,4.7-14.3,10.2-16.9
			c-0.9-0.8,0-3.4-0.9-4.2c9.3-1.7,11.2-2.5,17.7-7.6v1.7c1.1-0.9,2.4-1.5,3.7-1.7c0.9,0,0,1.7,0.9,1.7c1.9,0,1.9-0.8,2.8,0
			c0,0.8,0,2.5-0.9,3.4c3.7,0.8,4.7,4.2,5.6,7.6c7.5-4.2,10.2,5.9,10.2,10.1c0.9,7.6-1.9,11,8.4,14.3c-1.9-2.5-4.7-3.4-5.6-5.9
			c-0.9-4.2,0-3.4,0-6.7c0-2.5-2.8-6.7-0.9-8.4c3.7-4.2,4.7,4.2,4.7,5.9c0-0.8,0.9-0.8,1.9-0.8c0.2,0.9,0.5,1.7,0.9,2.5
			c1.9-1.7,4.7-3.4,5.6-5.9c-0.9,1.7-0.9,4.2-1.9,5.9c1.9-1.7,4.7-2.5,6.5-4.2c1,0.1,1.9,0.4,2.8,0.8c0.2-0.9,0.5-1.7,0.9-2.5
			c-6.5,2.5-8.4-7.6-5.6-9.3c0,0.8,0,1.7-0.9,1.7c-1.2-1-1.9-2.6-1.9-4.2c3.7,0,8.4-1.7,7.5-5.9c7.5,1.7,16.8-5,19.5-11
			c1,0.9,1.6,2.1,1.9,3.4c0-1.7,0.9-3.4,0.9-5c2-1.9,3.6-4.2,4.7-6.8c-6.5-4.2-9.3-7.6-0.9-12.6c-1.9-1.7-1.9-1.7-4.7-2.5
			c-0.9,0.8,0,1.7-0.9,2.5c-2.8-3.4-2.8-6.7,1.9-7.6v2.5c2.8-4.2,5.6-4.2,7.4,0c0-0.8,3.7-2.5,4.7-3.4c0,5.9-2.8,8.4-0.9,15.2
			c2.8-0.7,5.4-2.2,7.4-4.2c0,0.8-0.9,1.7-0.9,2.5c7.5-5.9,0.9-6.7,0-12.6c0.8-0.7,1.8-1,2.8-0.9c-0.9-1.7-0.9-4.2-1.9-5.9
			c0.9,0,4.7-0.8,5.6-0.8c2.8,1.7,2.8,0.8,4.7,1.7c0.9-0.9,0.9-1.7,0.9-3.4c14-2.5,8.4-20.2,15.8-27c3.7,3.4,3.7,16.9,0.9,20.2
			c1.6,0.1,3.2-0.2,4.7-0.9c-3.7-7.6,6.5-21.9-3.7-25.3c0.9-2.5,0-4.2,0-6.7c-0.9,3.4-2.8,5.9-5.6,6.7c-3.7-5.9-10.2-5.1-2.8-11.8
			c2.8-2.5,14-11,16.8-9.3c0.9-0.8,1.9-0.8,2.8-1.7c2.8,11.8,19.5-0.8,21.4-6.7c7.5,5.1,7.5-1.7,15.8-2.5
			c-4.7,9.3-16.8,16-18.6,26.1c0,0,1.9,5.1,1.9,6.7s-0.9,4.2-1.9,6.7c-1.9,5.1-4.7,8.4-8.4,13.5c13-5.1,13-19.4,24.2-26.1
			c-0.9-0.8-0.9-3.4-2.8-4.2c2.8-2.5,4.7-10.1,5.6-14.3c0.9,0.8,3.7,1.7,4.7,2.5c0.9-5.1,5.6-3.4,9.3-5.1s6.5-5,10.2-5.9v1.7
			c0.9-1.7,3.7-3.4,3.7-5.9h0.9c0.9,0.8,0,1.7,0.9,1.7c1.9-0.8,2.8-1.7,3.7-4.2c-2.8,0-2.8-1.7-5.6-2.5v-2.5
			c0.9,0.8,2.8,0.8,4.7,1.7c0.9-3.4,3.7-9.3,5.6-3.4c1.9,0,3.7,0.9,6.5-0.8c-0.9,0.8,0,2.5,0,4.2c1.9,1.7,4.7,2.5,6.5,1.7
			c-0.9-0.8-0.9-2.5-0.9-3.4v0.8c2.8-0.8,3.7-3.4,3.7-5.9c-0.9,0.8-1.9,0-3.7,0.8c0-1.7,0-3.4,0.9-4.2c-1.9,0-3.7,0-5.6,1.7
			c0-1.7-1.9-4.2-0.9-5.9c-0.9,0.8-2.8,0.8-4.7,1.7c0-0.8,0-2.5,0.9-3.4c-4.7-1.7-14-7.6-17.7-11c-5.6,5.9-6.5-3.4-13-0.8h1.9
			c-0.9,3.4-1.9,4.2,1.9,6.7c-4.7,2.5-8.4,0-8.4-4.2c-5.6,2.5-10.2-2.5-14.9,2.5c0.9-2.5,0-5.1,0.9-6.7c-1.9-0.8-1.9,0-2.8,0.8
			c-0.1-1.7,0.2-3.5,0.9-5.1c-2.8,0-10.2,3.4-12.1,2.5c-4.7-0.8-5.6-4.2-10.2-4.2c0.9-1.7,0-4.2,0-5.1c-6.5,0.8-15.8-7.6-17.7-0.8
			c-3.7,1.7-3.7,0.8-4.7,4.2c-5.6,2.5-9.3-1.7-12.1,3.4c-0.1-0.7-0.4-1.2-0.9-1.7c-0.9,0.8-2.8,2.5-3.7,2.5
			c-8.4-3.4-0.9-12.6-9.3-16.8c-2-0.2-3.9-0.7-5.6-1.7c-0.9,2.5-2.8,3.4-3.7,5c-0.9,0-1.9-0.8-2.8-1.7c-2.8,1.7-5.6,0-7.5-2.5
			c-0.9,0.8-2.8,1.7-3.7,2.5c0-1.7-1.9-2.5-1.9-4.2c-2.8,1.7-6.5,0.8-9.3-0.8c-3.7,1.7-8.4,7.6-12.1,5.9
			c2.8-6.7,12.1-10.1,14.9-16.8c-0.9,0-1.9-0.8-3.7-1.7c3.7-2.5,3.7-5.1,0.9-7.6s-5.6,0-9.3,1.7c0.9-4.2-0.9-5.9-4.7-6.7
			c0-0.8,0.9-0.8,0.9-1.7c-6.5-1.7-13,11-21.4,11.8c0.8-0.8,0.8-1.7,1.8-2.5c-5.6,1.7-12.1,5.9-17.7,9.3c0,0.8,0.9,0.8,1.9,1.7
			c-3.7,1.7-3.7,2.5-1.9,5.1c-3.7,0.8-5.6,2.5-4.7,5c-4.7-1.7-9.3,0-11.2,4.2l0.9,3.4c3.7,1.7,3.7,2.5,3.7,5.9
			c7.5,0.8,0,6.8-1.9,10.1c-1.9-3.4,0-9.3-3.7-13.5c-0.9,0.8-1.9,0.8-1.9,1.7c-0.9-2.5-2.8-3.4-3.7-5.1c-2.8,2.5-2.8,5.9-2.8,10.1
			c-3.7-3.4-1.9-8.4-3.7-12.6c2.8,5.9-9.3,23.6,3.7,22.7c0.9,2.5,0.9,4.2-0.9,6.8c-0.9-2.5-1.9-3.4-3.7-5.1
			c-2.8,5.1,0,18.5-11.2,14.3c14.9-0.8,0-20.2,6.5-24.4c-1.9-4.2,2.8-5.9,2.8-9.3s-3.7-3.4-1.9-7.6c-2.8,1.7-3.7,0.8-5.6,4.2V109
			c-5.6,2.5-7.5,20.2-5.6,24.4c0.9,0,1.9,0.8,2.8,0.8v4.2"/>
		<path class="st0" d="M517.4,139.3c0,0.8-0.9,1.7-1.9,2.5c0-1.7-1.9-2.5-1.9-5.1c-1.9,0-2.8,0.8-4.6,0.8c0.9-0.8,0.9-2.5,0.9-3.4
			c-0.9,0-1.9,1.7-2.8,0.9c-1.7-2.5-4.4-4-7.5-4.2c-0.9-3.4-1.9-4.2-5.6-4.2c1.9,2.5,7.5,12.6-0.9,8.4c-2.8,2.5-3.7,1.7-7.4,2.5
			v-2.5c-3.7,1.7-14,8.4-14.9,12.6c-2.8-0.8-4.7-3.4-6.5-5.9c4.6-2.5,4.6-5.1,0-5.9c-3.7,5.9,2.8,14.3-6.5,13.5
			c-2.1,1.9-3.6,4.2-4.7,6.7c-0.9,0-1.9-0.8-3.7-0.8c0,2.5-1.9,3.4-2.8,4.2c-5.6-5.1-4.7-12.6-12.1-16.9c5.6,0,8.4,5,11.2,5
			c4.6,0.9,13-2.5,5.6-5c-0.9-6.7-8.4-12.6-16.8-11.8c0.9-0.8,0.9-1.7,1.9-2.5c-1.9-3.4-5.6-6.7-8.4-3.4c-2.8-2.5-3.7-1.7-7.5-2.5
			v3.4c-1.9,0-2.8,1.7-6.5,0.8v2.5c-3.7,1.7-2.8,1.7-4.7,4.2c-3.7,0-7.4,1.7-8.4,5.1h2.8c-6.5,5.9-6.5,10.1-11.2,16.9
			c-2.8,5.1-7.5,9.3-10.2,13.5c-7.4,7.6-0.9,10.1-1.9,17.7c4.6-2.5,4.6-6.7,10.2-7.6c0.9,1.7,1.9,3.4,1.9,5.1c0,0,1.9-1.7,0.9-1.7
			c0,3.4,0,5.9,2.8,8.4c1.9-2.5,2.8-4.2,2.8-7.6c2.8,0,5.6-2.5,9.3-3.4c-0.9-2.5-1.9-5.1-3.7-5.9c-0.9-1.7-0.9-4.2-0.9-5.9
			c5.6-1.7,10.2-9.3,7.5-13.5c0.9-0.9,3.7-3.4,4.6-3.4s3.7-0.8,4.6-0.8c1.9,3.4,1.9,2.5,4.7,5.9c-2.8,0.8-3.7,2.5-5.6,5.1
			c-0.9-0.4-1.8-0.7-2.8-0.8c-2.8,5.9-0.9,11.8-2.8,17.7c1.8-2.3,4.6-3.5,7.5-3.4c0.9,0,0.9-1.7,2.8-2.5c0.2,1.3,0.9,2.5,1.9,3.4
			c0-0.9,1.9-1.7,1.9-1.7c2.8,3.4,0.9,5.1-3.7,5.1v3.4c-2.8-1.7-4.7-1.7-8.4,0c0.9,0,2.8,0,3.7,0.8s0.9,1.7,2.8,2.5
			c-0.9,0.8-3.7,2.5-3.7,3.4c-1.9,0-1.9-0.8-3.7-0.8c-0.9,0-0.9,0.8-0.9,1.7l-1.9-1.7c-0.9,2.7-0.9,5.7,0,8.4
			c-3.3,0.9-6.5,2.3-9.3,4.2c-0.9-0.8-3.7-2.5-5.6-4.2v1.7c0,0-1.9-0.9-1.9,0s-0.9,2.5-0.9,4.2c-3.7-0.8-6.5-2.5-6.5-6.7
			c1.9,0,2.8-0.8,4.6-0.8c0-0.9-0.9-1.7-0.9-3.4h3.7c-2.8-8.4-11.2,1.7-8.4,6.8c-7.5,2.5-12.1,5.9-14,13.5c-4.7,0-7.5,2.5-12.1,0
			c-0.9,0.8,0,1.7,0,2.5l-2.8-2.5c-2.8,5.9,3.7,5.9,5.6,9.3s-3.7,5.1,1.9,8.4c-0.9,0.8-3.7,2.5-5.6,2.5c-2.8-3.4-0.9-2.5-5.6-1.7
			c-2.8-2.5-5.6,0-9.3,1.7c-0.9,1.7,0,4.2,0.9,5.9c6.5,0.8,0.9,9.3,8.4,11s10.2-5.1,12.1-10.1c3.7-0.8,5.6-4.2,6.5-6.7
			c0.9,1.7,3.7,4.2,4.6,5.9c2.8-1.7,2.8,0,5.6-0.9v3.4c2.8-3.4,1.9-8.4,0-11.8c2.8,0,1.9,0.8,2.8,1.7c0.5-0.5,1.2-0.8,1.9-0.8
			c0.9,0.8,2.8,3.4,2.8,4.2h4.6c-0.9,2.5,0.9,5.1,3.7,6.7c5.6-6.7-5.6-7.6-1.9-14.3c0.9,0.8,1.9,2.5,2.8,3.4l2.8-2.5
			c0.9,3.4,2.8,4.2,5.6,4.2c-2.8,0.9-2.8,0.9,0,4.2c0.5-0.5,1.2-0.8,1.9-0.8c1.9,7.6,0.9,6.7-0.9,13.5c3.7,0,6.5,1.7,7.5,4.2
			c3.7-1.7,1.9-1.7,6.5-1.7c-0.9-0.8-0.9-3.4-1.9-4.2c0.9-0.8,2.8,0.8,3.7,0c0-0.8-0.9-1.7,0.9-1.7c0.5,0.8,0.8,1.6,0.9,2.5
			c2.8,0.9,5.6,1.7,8.4,0c0.9,5.9,6.5,4.2,11.2,2.5c0,3.4-1.9,5-3.7,7.6h-3.7c0.9,0.8,0.9,3.4,0.9,4.2c-0.9,0.9-4.6,1.7-6.5,1.7
			c0-0.8-0.9-1.7-1.9-2.5c-1.8,0.6-3.7,0.9-5.6,0.8c-0.9,0.9-1.9,2.5-2.8,2.5c-3.7-1.7-10.2-11.8-11.2-3.4c-0.9-0.8-0.9-1.7-1.9-1.7
			c0,0.8-0.9,3.4-0.9,5c-4.6-2.5-12.1-5.9-15.8-8.4v2.5c-1.9-0.8-2.8-2.5-3.7-3.4c-0.1-1.5,0.2-2.9,0.9-4.2c0,0-0.9-3.4-1.9-4.2
			c-4.7,0-7.5,2.5-5.6,5.9c-5.6-0.8-12.1-9.3-14,0c-3.7-3.4-2.8-1.7-6.5,0c-0.9,0-1.9-0.8-2.8-1.7l-1.9,1.7
			c-0.9-0.8-1.9-0.8-2.8-1.7c0,1.7-0.9,3.4-0.9,5.1c-5.6-3.4-16.8,11-14,16c-4.7,0.8-8.4,4.2-4.7,8.4h-2.7
			c-2.8,3.4-2.8,16.9-0.9,21.9c-0.9,2.5,0.9,4.2,4.7,5c0.9,0,1.9-0.8,2.8-1.7c0,4.2,3.7,7.6,5.6,10.1c1.9,0,1.9-0.9,3.7-1.7
			c1.9,5.9,6.5,2.5,8.4-1.7c1.9,0.8,0.9,0.8,1.9,2.5c0.9,0,1.9-0.8,2.8-0.8c0.9,0.8,0.9,1.7,2.8,2.5c1-0.9,1.6-2.1,1.9-3.4
			c3.7,1.7,6.5,0.8,8.4-1.7c0.6,1,1,2.2,0.9,3.4c5.6,0,13,2.5,10.2,8.4c0.9,0,2.8,0.8,3.7,0.8c0.9,0.8,1.9,4.2,1.9,5.9
			c-1.9,0-2.8,0.8-3.7,0.8c5.6,5.9,15.8,21.9,2.8,27c2.8,1.7,2.8,3.4,4.6,5.1c-1.9,3.4-0.9,9.3,3.7,10.1c-0.9,3.4,0,4.2,0,7.6
			c-0.5-0.5-1.2-0.8-1.9-0.8c1.9,1.7,0.9,2.5,4.7,3.4c0,1.7,0.9,2.5,0.9,3.4"/>
		<path class="st0" d="M354.5,210.1c0.9-0.8,3.7-1.7,4.6-2.5l0,0c4.7,0,15.8,3.4,12.1-5.1c-7.4,1.7-12.1-12.6-10.2-17.7h-2.8
			c1.4-2,2-4.4,1.9-6.8c-1.9,4.2-5.6,8.4-9.3,5.9c-1.9,0.9-1.9,1.7-2.8,1.7c4.6,5.9,8.4,6.7,9.3,14.3l-2.8-2.5
			c0.2,2.9,0.8,5.7,1.9,8.4c-1.9,0-1.9,0.8-2.8,0.8C353.6,207.6,354.5,209.3,354.5,210.1"/>
		<path class="st0" d="M345.2,205.9c1.9,0,3.7,0,5.6-2.5c0.5,0.5,1.3,0.5,1.9,0c-1.9-2.5-0.9-5.9,2.8-7.6
			c-5.6-5.9-14.9,0.8-10.2,7.6c-1.9,0.8-0.9,3.4-0.9,2.5"/>
		<path class="st0" d="M316.4,158.7c0.6,0.7,1,1.6,0.9,2.5c0.9-0.8,2.8-0.8,4.6-1.7c0,0.8,0.9,1.7,0.9,3.4c1.8,0.8,3.8,0.8,5.6,0
			c0-1.7,1.9-2.5,0.9-5.1c3.7,0,4.6-1.7,7.5-4.2c-1.9-2.5-2.8-4.2-5.6-4.2c0-0.8-0.9-1.7-2.8-2.5c-2.8,2.5-5.6,5.1-9.3,5.9
			c0-2.5-0.9-3.4-0.9-5.1c-3.7,1.7-4.6,4.2-5.6,6.8c1.7,0.9,3.6,1.5,5.6,1.7"/>
		<path class="st0" d="M397.3,66l2.8-2.5c0,1.7,0.9,2.5,0,5.1c0.9,0,1.9-1.7,2.8,0c-0.9,3.4-9.3,5.1-2.8,7.6
			c-1.9,4.2,0,7.6,2.8,10.9c5.6-5.9,2.8-14.3,4.6-21.9c1.9,2.5,4.7,7.6,4.7,11.8c1.9,0,4.6,0,6.5-0.8c-5.6-5.1-2.8-16.8-11.2-18.5
			c-0.9-0.8,0.9-1.7,0-2.5c-0.9,0.4-1.8,0.7-2.8,0.8c0.9-3.4,0-5.9-3.7-7.6c-2.8,3.4,0.9,7.6-1.9,11c0-2.5-1.9-5-2.8-7.6
			c0,0.5-0.4,0.8-0.9,0.8c0,0,0,0-0.1,0c0-1.7,0-1.7-1.9-2.5c-3.7,1.7-8.4,4.2-4.6,7.6c-0.9,3.4-0.9,5.9,2.8,5.9
			c-2.8,3.4-0.9,3.4,1.9,5.9c2.1-1.8,3.9-3.7,5.6-5.9"/>
		<path class="st0" d="M407.6,45.8l-2.8,2.5c0.8,0.7,1.8,1,2.8,0.8c0,1.7,0,3.4,0.9,4.2c0.9-0.8,4.7-0.8,6.5-1.7
			c-0.9,2.5,0.9,1.7-2.8,4.2l3.7,3.4c0.9,0,1.9-1.7,2.8-1.7c0,0,0,0.8,1.9,0.8c2.8-3.4,2.8-6.7,5.6-10.1c-1.9-1.7-5.6-2.5-7.5-3.4
			c-1.9,2.5-3.7,1.7-4.6,3.4c-2-0.9-3.9-2-5.6-3.3"/>
		<path class="st0" d="M472.7,40.8c-0.9,0.8-2.8,0.8-0.9,4.2c-0.9,0-2.8,0-2.8,0.8c0.9-0.8,2.8-0.8,4.7-1.7c-0.9,1.7-0.9,3.4-1.9,5
			c4.6-2.5,2.8-10.1,8.4-7.6c-0.9-4.2-2.8-5.1-6.5-1.7"/>
		<path class="st0" d="M483,38.2v3.4c0.9-0.8,3.7-0.8,4.6-1.7c0,1.7,0.9,3.4,0,4.2c2.4-1.3,4.9-2.4,7.5-3.4c0.9-2.5,0.9-2.5-0.9-5
			c-1.7,0.6-3.2,1.5-4.6,2.5c-1.9-5.9,5.6-4.2,5.6-9.3c-5.6,0-10.2,5.9-12.1,8.4"/>
		<path class="st0" d="M485.8,45.8c-1.9,0.8-3.7,0.8-4.6,1.7c1.9,0.8,3.7,0,6.5-0.8c-2.8,0-0.9-1.7-1.9-1.7"/>
		<path class="st0" d="M497.9,41.6c-0.9,1.7-2.8,2.5-3.7,4.2c3.7,0,3.7,0,4.7-2.5l-1.9-1.7"/>
		<path class="st0" d="M502.5,36.5c-0.9,1.7-1.9,2.5-1.9,4.2c0.9,0,1.9-0.8,2.8-0.8c0.9,0.8,0,2.5,0.9,3.4c3.7-0.8,5.6-5,7.5-8.4
			c-3.7-0.8-6.5,0.8-9.3-0.8"/>
		<path class="st0" d="M504.4,28.1c-0.9,1.7-2.8,2.5-2.8,4.2l3.7-1.7c0-0.8-1.9-0.8-1.9-1.7"/>
		<path class="st0" d="M496,49.2c-1.9,0.8-2.8-0.8-3.7,1.7c1.9,0.8,3.7-0.8,4.7-1.7"/>
		<path class="st0" d="M488.5,45c0,0.8-0.9,1.7-0.9,3.4c2.8,0,2.8,0,4.6-1.7l-2.8-2.5"/>
		<path class="st0" d="M531.4,54.2c0,0.8-1.9,1.7-1.9,2.5c4.7-0.8,2.8-0.8,4.7-3.4c-0.9-0.8-1.9,0-2.8-0.8"/>
		<path class="st0" d="M540.7,36.5c-0.7,1.3-1.7,2.4-2.8,3.4c2.8,0.8,2.8,0,5.6-0.8C543.5,37.4,542.5,37.4,540.7,36.5"/>
		<path class="st0" d="M567.7,38.2c3.7-3.4,12.1-4.2,11.2,5h2.8c-2,1.9-3.6,4.2-4.6,6.8c3.7,0.8,3.7,0,2.8,3.4
			c6.5,1.7,4.7,11-2.8,9.3c0.9,0-6.5-6.7-6.5-5.9c-0.9-3.4,1.9-5,0.9-8.4c-0.9,0.8-2.8,0.8-4.7,2.5c0-3.4,0.9-5,4.7-6.7
			c0-0.8-0.9-0.8-1.9-1.7c0-0.8,0-0.8,0.9-1.7c-0.9-0.8-1.9,0-2.8-0.8"/>
		<path class="st0" d="M588.1,56.8l-1.9,1.7c2.8,3.4-3.7,7.6-5.6,11.8c1,0.1,1.9,0.4,2.8,0.8c3.7-4.2,8.4-1.7,11.2-5.1
			c5.6-5.1-2.8-5.1-3.7-10.1"/>
		<path class="st0" d="M513.7,79.5c-2.8,5.1-12.1,8.4-18.6,10.1c-1.9,2.5-4.7,4.2-3.7,6.7c-2,3-4.5,5.5-7.4,7.6
			c0.9,0.8,0.9,1.7,1.9,2.5c-3.7,1.7-11.2,11-4.6,12.6c-0.9,1.7-0.9,4.2-0.9,5.9c0.9-0.8,2.8-0.8,3.7-1.7c0,1.7-0.9,2.5-0.9,3.4
			c2.8,2.5,6.5,3.4,9.3,1.7c-2.8-1.7-3.7-5.9-3.7-10.1c0-3.4,0.9-11,1.9-12.6c3.4-4.7,7.2-9.2,11.2-13.5c4.7-2.5,8.4,0.8,12.1-5.1
			c-0.9,0-0.9-0.8-1.9-0.8c4.7-1.7,5.6-4.2,3.7-7.6"/>
		<path class="st0" d="M668.2,88.8c-0.9,0-8.4,0.8-0.9,4.2c-6.5,5.1,1.9,11,4.7,4.2c2.8,0.8,3.7,0,5.6,1.7c0.9,0,2.8-0.8,3.7-0.8
			c-0.9-4.2,0-2.5,1.9-5.1c0.9,0.8,0.9,1.7,1.9,2.5c0-5.1-6.5-6.7-10.2-3.4c0-0.8-0.9-2.5-0.9-3.4c-0.9,0.8-2.8,0.8-2.8,0"/>
		<path class="st0" d="M689.6,95.5c-0.9,0.8-1.9-0.8-2.8,2.5c0.9,0,4.7,1.7,5.6,1.7s3.7-2.5,4.7-2.5c-1.9-1.7-4.7-2.5-6.5-3.4"/>
		<path class="st0" d="M674.7,103.1c-0.7-0.1-1.3-0.4-1.9-0.8c0,1.7,0,1.7,1.9,3.4c0.9-0.8,0-2.5,0.9-3.4"/>
		<path class="st0" d="M678.4,106.5c-5.6,0-3.7,5.1,0.9,2.5c0-1.7-0.9-1.7-1.9-2.5"/>
		<path class="st0" d="M761.3,120c-1.9,0.8-3.7,1.7-4.7,3.4c0.9,1.7,3.7,1.7,7.5,0c0-1.7-0.9-0.8-1.9-1.7"/>
		<path class="st0" d="M683.1,228.6c-2.8,0.8-4.7,1.7-7.4-0.9c-1.9,3.4-5.6,5.1-6.5,9.3c0,0.9,0.9,6.7,0.9,9.3
			c-1.9,0.8-3.7,2.5-4.7,2.5c-0.7-0.1-1.3-0.4-1.9-0.9c-1.9,0-2.8,1.7-4.7,1.7v3.4c-0.9,0-6.5,0.8-7.4,0.8c-1.9,2.5,0,4.2-0.9,5.1
			l-0.9,5.9c-0.9,3.4-2.8,4.2-2.8,7.6c3.7-4.2,4.7-12.6,10.2-16c3.7-1.7,20.5-0.8,15.8-9.3c5.6-0.8,4.7-5.1,0.9-8.4
			c1.9-0.8,0.9-0.8,3.7-1.7c1.3-1.2,2.9-2.1,4.7-2.5c0,0.9,0.9,0.9,1.9,1.7c1.9-2.5,2.8-5.1,1.9-7.6"/>
		<path class="st0" d="M631,275.8c-1.9,1.7-2.8,2.5-2.8,5C631.9,280.9,634.7,275.8,631,275.8"/>
		<path class="st0" d="M631.9,286.8c-3.7,3.4-6.5,12.6-1.9,15.2c0-3.4,0.9-9.3,5.6-11c-0.7-1.5-1.7-2.9-2.8-4.2"/>
		<path class="st0" d="M634.7,303.6c0,0.8,0,2.5,0.9,3.4h-1.9c3.7,0,3.7-2.5,1.9-5c-1.9,0-1.9,0.8-2.8,1.7"/>
		<path class="st0" d="M638.4,307.8c-0.9,1.7-1.9,4.2-2.8,5.1c3.7,1.7,6.5-0.8,3.7-5.1"/>
		<path class="st0" d="M621.6,309.5c-1.9,2.5-8.4,5.9-6.5,10.1c-2.4,0.6-4.7,1.7-6.5,3.4c-2.4-0.6-4.9-0.9-7.5-0.8
			c2.8,2.5,6.5,8.4,10.2,9.3c4.7,2.5,11.2,1.7,8.4-4.2c3.7-2.5,1.9-0.8,4.7-4.2c0.9,0.8,1.9,1.7,2.8,1.7c-0.9-4.2-4.7-6.7-2.8-10.1
			c0-0.8,0.9-0.8,0.9-1.7c-0.9-0.8-2.8-3.4-4.7-4.2"/>
		<path class="st0" d="M592.8,322.2c0,0-6.5-0.9-8.4,0c-0.9-4.2-5.6-8.4-10.2-7.6c0.9,4.2,8.4,11.8,11.2,15.2
			c1.9,1.7,11.2,11.8,12.1,5c0,0,1.9-0.8,1.9,0c-0.9-5-6.5-8.4-4.7-12.6"/>
		<path class="st0" d="M601.2,336.5c-1.9,1.7-3.7,1.7-1.9,4.2c2.8-1.7,3.7-0.8,6.5-1.7c2.8,5,22.3,5,27.9,1.7
			c-11.2,0-23.3-3.4-33.5-4.2"/>
		<path class="st0" d="M630,325.5c-2.8-1.7-1.9,10.1-2.8,12.6c3.7,0,3.7-3.4,2.8-5.9c0.9,3.4,2.8,3.4,3.7,5.9
			c1.9-2.5,0.9-5.9-0.9-8.4l5.6,2.5c0.9-3.4-0.9-2.5-4.7-3.4c-1.9-1.7-0.9-1.7-0.9-3.4c4.7,0.8,7.5,0,7.5-4.2
			c-3,1.3-6.1,2.5-9.3,3.4"/>
		<path class="st0" d="M644.9,321.3c-0.9,2.5-2.8,2.5,0,5.1c-3.7,2.5-4.7,5.9-0.9,8.4c1.1-0.9,2.3-1.5,3.7-1.7
			c1.9,0.8,2.8,0.8,5.6,1.7c-3.7-2.5-5.6-4.2-7.5-7.6c-1.9-2.5,3.7-4.2-1.9-6.7"/>
		<path class="st0" d="M651.4,325.5c-0.9,0-0.9-1.7-0.9,0.8c3.7,0.8,6.5,3.4,3.7,6.7c2.8,1.7,5.6,2.5,8.4,0.8c2.6,1.5,5.1,3.1,7.4,5
			c-3.7,3.4-15.8,4.2-19.5,0c-0.2,0.9-0.5,1.7-0.9,2.5c-6.5-0.8-7.5,3.4-14,3.4l-1.9-0.8c-0.9,0-0.9,0.8-0.9,1.7
			c4.7,0.8,10.2,0.8,12.1-3.4c4.7,1.7,2.8,1.7,6.5,0c1.9,0.8,3.7,1.7,4.7,3.4c4.7,0.8,16.8,0.8,17.7-5.1c0.9,1.7,2.8,4.2,3.7,5.9
			c2.8-0.8,5.6-2.5,8.4-3.4c0-1.7,0-2.5,0.9-3.4c0,1.7,2.8,4.2,2.8,5.9c2.8-2.5,3.7-1.7,1.9-5.9c3.7-0.8,8.4-1.7,10.2-5.1
			c-1.4-2.1-3.3-3.9-5.6-5c0.9,0.8,0,2.5,0.9,4.2c-3.7,4.2-9.3-0.8-14,3.4c-2.8-4.2-7.4-4.2-10.2-8.4c-3.7,0.8-5.6,0-9.3,2.5
			c0.9,0.9,0.9,2.5,0.9,3.4c-6.5-1.7-5.6-8.4-12.1-10.1"/>
		<path class="st0" d="M674.7,349.1c-0.9,3.4-0.9,8.4-0.9,11.8c-2.8-0.8-6.5-3.4-10.2-3.4c0.9-1.7,0.9-3.4,2.8-5
			c-2.8-0.8-2.8-0.8-4.7,0c-2.8-1.7-1.9-1.7-5.6,0c-2.8-1.7-5.6-2.5-8.4-4.2c0.9,1.7,0.9,5,1.9,6.7c-2.8,0-5.6,0-7.5-0.8
			c-0.7,0.6-1.1,1.6-0.9,2.5c-4.7,0-10.2,8.4-14.9,11c-4.7,1.7-17.7,5.1-10.2,10.1c2.8,4.2,0,9.3,0.9,13.5c3.7,1.7,3.7,5.9,1.9,9.3
			c1.3,0.1,2.6-0.2,3.7-0.8c3.7,0.8,1.9,1.7,6.5-0.9c-0.1,0.9,0.2,1.9,0.9,2.5c0.9-1.7,3.7-3.4,4.7-5c0.5,0.5,1.2,0.8,1.9,0.8
			c1.9-3.4,8.4-9.3,11.2-4.2c0.9,0,1.9-0.8,2.8-1.7v1.7c0.9-0.8,3.7-1.7,4.7-2.5c2.6,1.5,4.8,3.5,6.5,5.9c2.8-2.5,10.2-3.4,7.5,2.5
			l8.4,7.6c-0.7,0.6-1.1,1.6-0.9,2.5c3.7-0.9,3.7,0,6.5-1.7c0.9-0.8,1.9,0,2.8,0c0.2-1.3,0.9-2.5,1.9-3.4c1.9,0.8,3.7,0.8,4.7,1.7
			c1.9-0.9,0.9-0.9,0.9-2.5c2.6-0.7,4.7-2.6,5.6-5.1c-5.6-6.7,3.7-8.4,5.6-13.5c-0.9-1.7-1.9-1.7-2.8-2.5s0-1.7,0-2.5
			c-0.9-0.8-1.9-0.8-2.8-1.7c0-0.8,0.9-1.7,0-2.5c-4.7-2.5-11.2-10.1-15.8-14.3c-2.8-3.4-7.4-11-7.4-16"/>
		<path class="st0" d="M684,414c-2.8,0.8-3.7,0-3.7,3.4h2.8v5.1c0.9,0.8,1.9-0.9,2.8,0c0,0.8-1.9,1.7-0.9,2.5c3.7-1.7,2.8-5,0.9-7.6
			c6.5-3.4,4.7-11.8-0.9-5.9"/>
		<path class="st0" d="M734.3,421.6c-1.9,2.5-3.7,3.4-6.5,5.1c0.9,3.4,4.7,2.5,4.7,4.2c0,2.5-0.9,5.9-0.9,9.3
			c3.7-4.2,5.6-11.8,9.3-15.2s8.4-3.4,10.2-8.4c0-2.5-0.9-1.7,0.9-4.2c-0.9-3.4-2.8-5.9-6.5-4.2s0.9,3.4-0.9,5.9
			c-2.8,3.4-8.4,5.1-10.2,9.3"/>
		<path class="st0" d="M749.2,400.5c-0.9,2.5,0.9,10.1,3.7,12.6c0-1.7,0.9-3.4,0.9-5.1c1.9,0,1.9-0.8,3.7,0c-1.9-5-6.5-0.8-7.5-6.7"
			/>
		<path class="st0" d="M210.2,77c0-0.8,1.9-0.8,0-1.7c-2.8,0.8-3.7,0.8-4.6,4.2c3.7,0,4.6-0.8,6.5-3.4"/>
		<path class="st0" d="M213,79.5c0,0.8-2.8,3.4-4.6,4.2c1.6,0.1,3.2-0.2,4.6-0.8c0,0.8,0.9,1.7,1.9,2.5c0,3.4-0.9,1.7,1.9,4.2h0.9
			c0-0.8,0-1.7,0.9-1.7c3.7,1.7,7.4,0,8.4-3.4c0.9,0.8,2.8,2.5,2.8,4.2c0.9-0.8,2.8-1.7,3.7-2.5c0.9,1.7,2.8,3.4,2.8,5.9
			c0.9,0,1.9-0.8,3.7-0.8c0,2.5,0,5.1-1.9,7.6h3.7c5.6,5,0.9,11.8,4.6,16.8c-1.9,1.7-0.9,3.4,0,6.7c4.6-1.7,9.3,2.5,6.5,5.9
			c-1.9-1.7-2.8-1.7-4.6-3.4c0,2.5,0,4.2,0.9,5.9h2.8c-1.9,0.9-2.8,2.5-3.7,3.4c0.9,0,2.8-0.8,3.7-0.8v4.2
			c-11.2,6.7-0.9,21.9,1.9,28.6h1.9c0.9,2.5,2.8,4.2,3.7,6.7c0.5-0.5,1.2-0.8,1.9-0.8c0.9,4.2,6.5,6.7,10.2,7.6
			c0.1-2.6-0.2-5.1-0.9-7.6c5.6-3.4,1.9-11.8,4.6-16.9c0.5,0,0.9,0.3,0.9,0.8c0,0,0,0,0,0.1c1.9,0,1.9-0.8,3.7-0.8
			c0-1.7,1.9-3.4,2.8-5.9c0.9,0.8,0,0.8,1.9,1.7c0.9-0.8,0.9-2.5,1.9-3.4c0.9,0.9,1.9,1.7,2.8,1.7c2.8-0.8,4.7-4.2,3.7-7.6
			c1.9-0.8,2.8-0.8,3.7-1.7c0.9,0,1.9,0.9,2.8,1.7c4.7-3.4,3.7-9.3,5.6-13.5c0,0.8,1.9,2.5,1.9,3.4c5.6-0.9,5.6-6.7,1.9-10.1
			c0.9-0.8,1.9-0.8,2.8-1.7c1.9,2.5,3.7,4.2,2.8,6.7c1.9-1.4,3.2-3.5,3.7-5.9c2.8-3.4-4.6-9.3-0.9-16c0.9,1.7,2.8,2.5,3.7,3.4
			l2.8-2.5c-0.9-1.7-0.9-3.4-1.9-5.1c-0.9,0-0.9,0-1.9,0.8c0-2.5,0.9-2.5-0.9-5.1c4.6,0,4.6-0.8,4.6-4.2c2.8-1.7,2.8-3.4,3.7-5.9
			c-2.8-1.7-3.7-4.2-4.7-5.9c0.9,0,0.9-0.8,1.9-0.8l0.9,0.8c1.2-1.1,1.8-2.6,1.9-4.2c-3.7-2.5-8.4-6.7-8.4-11.8h1.9l0.9-2.5
			c0.9-0.8,0.9-0.8,0.9-2.5c1.1-2.2,2-4.4,2.8-6.7c-0.1,0.9,0.2,1.9,0.9,2.5c-2.8-4.2-1.9-6.7,2.8-6.7v-1.7l0,0
			c0.9,0.8,2.8,1.7,3.7,2.5c-0.9-2.5,0.9-2.5-0.9-5c1.9,0,2.8-1.7,3.7-1.7c-2.8-4.2,2.8-6.7,4.7-8.4c-0.9-0.8-0.9,1.7-0.9,1.7
			c0-1.7,0.9-3.4,0.9-4.2c-0.9-0.9-0.9,0-1.9,0.8c0,0.8,0.9-1.7,0.9-2.5h-1.9c-0.9-0.8-0.9-2.5-1.9-3.4c-1.9-0.8-1.9,0-2.8,0
			c0-0.5-0.4-0.8-0.9-0.8c0,0,0,0-0.1,0c-0.9,1.7-2.8,2.5-3.7,5V29c-0.9,1.7-2.8,3.4-3.7,5c0-1.6-0.7-3.1-1.9-4.2
			c-2.8,2.5-3.7,5.9-5.6,9.3c0.9-3.4,1.9-6.7,2.8-9.3c-0.9,0-1.9,0.8-2.8,0.8c0.9-1.7,0.9-4.2,1.9-6.7c-0.9,1.7-0.9,2.5-1.9,3.4
			c0,0,0-1.7-0.9-1.7c-0.9,2.5-2.8,4.2-5.6,5.9H308c0.9-1.7,0.9-3.4,2.8-5.1c-1.4,0.9-3,1.5-4.6,1.7c-0.7-0.6-1.1-1.6-0.9-2.5
			c-2.8,0.8-5.6,0-7.5,0c0.4-3.9,3.9-6.7,7.8-6.3c1.6,0.2,3.1,0.9,4.3,2.1c0.9-0.9,1.9-2.5,2.8-2.5l0.9,0.8l2.8-2.5
			c-0.9-1.7-0.9-2.5-1.9-4.2h-2.8c0-0.8,0.9-0.8,0.9-1.7c0-1.7-1.9-2.5-2.8-3.4h2.8c-4.6-0.8-7.4,0.8-8.4,4.2
			c-2.8-1.7-5.6-3.4-7.5-5.9c1.9,1.7,5.6,0,8.4-2.5c-2.8-0.8-2.8-1.7-6.5-0.8c-2.8-4.2-7.4-3.4-10.2,0c-0.5,0-0.9-0.3-0.9-0.8
			c0,0,0,0,0-0.1c-0.9,0-0.9,0.8-1.9,1.7c-1-0.9-1.9-1.7-2.8-1.7v2.5c-3.7,1.7-7.5,3.4-12.1,1.7c0,0.8,0,2.5,0.9,3.4
			c-2.8,0-3.7,0.8-5.6,0.8c0.9,0,0.9-0.8,0-0.8c-6.5,3.4,3.7,7.6,1.9,13.5c-0.9-3.4-2.8-7.6-6.5-10.1c0.9,3.4,2.8,9.3,0.9,10.1
			c0,0.8,0.9,1.7-1.9,3.4c-0.9-3.4-0.9-7.6-2.8-11c0,0.8,0,2.5-0.9,3.4c0-0.9-0.8-1.7-1.7-1.7c0,0-0.1,0-0.1,0v4.2
			c0-0.9,0.9,0.8-0.9,2.5c-1.9-2.5-3.7-2.5-6.5-4.2c-0.6,1-1,2.2-0.9,3.4c0-0.8,0-0.8-0.9-0.8c-0.9,2.5-2.8,3.4-4.7,5.1
			c-0.9,0-1.9-0.9-2.8-1.7c-4.6,5-1.9,9.3-6.5,13.5c-0.9-1.7-3.7-3.4-4.7-5.1c0.9,1.7,0,3.4,0.9,5.1c-4.6,3.4-9.3,6.7-10.2,11.8
			c3.7,2.5,4.6,5,3.7,9.3c-0.9-0.8-4.7-1.7-5.6-2.5c0,6.7-8.4,6.7-9.3,13.5c1.9,0.8,0.9,0,2.8,0c1.9,0.8,2.8,1.7,6.5,1.7
			c0,0.8,0,2.5-0.9,3.4c0.9,0,0.9-0.8,1.9-0.8s0,1.7,0.9,2.5c0.9,0,1.9-0.8,2.8-0.8c-1.9,2.5-4.7,3.4-4.7,2.5"/>
		<path class="st0" d="M473.6,350.8c-0.9,0.9-2.8,1.7-2.8,4.2c-2.8,3.4-8.4,5.1-12.1,7.6c1.9,1.7,1.9,2.5,3.7,3.4l-2.8,2.5
			c0.9,1.7,1.9,0.9,1.9,2.5c-2.8,1.7-2.8,3.4-3.7,5.9h1.9c0.9,3.4,0.9,4.2,4.6,4.2c0.9,0.9-0.9,1.7,0.9,2.5c1.9-3.4,3.7-2.5,3.7-5.9
			c0.9,0,0,0.9,1.9,0c-1.9-3.4-0.9-5.9,1.9-7.6c-0.9-1.7-0.9-3.4-1.9-4.2c3.7-0.8,4.6-3.4,1.9-6.7c1.9,0,2.8-1.7,4.6-1.7
			c0,0-1.9-1.7-1.9-2.5c0.9,0,0.9,0,1.9-0.8c-1.9-1.7-1.9-2.5-1.9-4.2"/>
	</g>
</g>
</svg>
