<?xml version="1.0" encoding="utf-8"?>
<!-- Generator: Adobe Illustrator 24.0.1, SVG Export Plug-In . SVG Version: 6.00 Build 0)  -->
<svg version="1.1" id="Capa_1" xmlns="http://www.w3.org/2000/svg" xmlns:xlink="http://www.w3.org/1999/xlink" x="0px" y="0px"
	 viewBox="0 0 1920 480" style="enable-background:new 0 0 1920 480;" xml:space="preserve">
<style type="text/css">
	.st0{fill:none;}
	.st1{clip-path:url(#SVGID_2_);}
	.st2{fill:#C5E3E5;}
	.st3{fill:#DFEFF1;}
	.st4{clip-path:url(#SVGID_4_);}
	.st5{fill:#327D70;}
	.st6{fill:#51A49A;}
	.st7{fill:#E1EEEE;}
	.st8{fill:#61BFB2;}
	.st9{clip-path:url(#SVGID_6_);}
	.st10{clip-path:url(#SVGID_8_);}
	.st11{fill:#F8D1A3;}
	.st12{fill:#F17050;}
	.st13{fill:#EFC495;}
	.st14{fill:#FCE5CD;}
	.st15{fill:#673A59;}
	.st16{fill:none;stroke:#673A59;stroke-width:0.89;stroke-miterlimit:10;}
	.st17{fill:#44556A;}
	.st18{fill:#F5B8A1;}
	.st19{fill:#5B8293;}
	.st20{fill:none;stroke:#673A59;stroke-width:0.89;stroke-linecap:round;stroke-linejoin:round;}
	.st21{fill:#B43750;}
	.st22{fill:#FEFAE5;}
	.st23{fill:#FFF8E6;}
	.st24{fill:none;stroke:#FFD72E;stroke-width:0.44;stroke-miterlimit:10;}
	.st25{clip-path:url(#SVGID_10_);}
	.st26{fill:#243753;}
	.st27{clip-path:url(#SVGID_12_);}
	.st28{clip-path:url(#SVGID_14_);}
	.st29{fill:none;stroke:#243753;stroke-width:1.51;stroke-miterlimit:10;}
	.st30{clip-path:url(#SVGID_16_);}
	.st31{fill:#FEF9EC;}
	.st32{fill:none;stroke:#673A59;stroke-width:1.78;stroke-linecap:round;stroke-linejoin:round;}
	.st33{clip-path:url(#SVGID_18_);}
</style>
<title>6838596</title>
<g id="BACKGROUND">
	<rect x="0.6" y="0" class="st0" width="1919.3" height="480"/>
</g>
<g id="OBJECTS">
	<g>
		<defs>
			<path id="SVGID_1_" d="M1919.3,183.8v148.9h-214c0,0,175.3-167.3,191.6-167.3C1900.3,165.4,1908.5,172.5,1919.3,183.8z"/>
		</defs>
		<clipPath id="SVGID_2_">
			<use xlink:href="#SVGID_1_"  style="overflow:visible;"/>
		</clipPath>
		<g class="st1">
			<path class="st2" d="M2042.9,332.7c0,0-129.7-167.3-146-167.3s-191.6,167.3-191.6,167.3H2042.9z"/>
			<path class="st3" d="M2042.9,332.7h-71.3c-7.5-8.6-42.2-48-56.3-66.1c-15.9-20.4,6.9-22.6-9-42.3s-14.3-31.1-3.6-32
				s-5.8-26.9-5.8-26.9C1913.2,165.4,2042.9,332.7,2042.9,332.7z"/>
		</g>
	</g>
	<path class="st2" d="M1601.7,333.3c0,0-200.2-242.9-225.3-242.9s-295.8,242.9-295.8,242.9H1601.7z"/>
	<path class="st3" d="M1601.7,333.3h-110.1c-11.6-12.4-65.1-69.8-86.8-96c-24.5-29.6,10.6-32.8-13.9-61.3s-22.1-45.1-5.6-46.4
		s-8.9-39.1-8.9-39.1C1401.4,90.4,1601.7,333.3,1601.7,333.3z"/>
	<path class="st2" d="M1835.7,333.3c0,0-157.6-182.8-177.4-182.8s-232.8,182.8-232.8,182.8H1835.7z"/>
	<path class="st3" d="M1835.7,333.3H1749c-9.2-9.4-51.2-52.5-68.3-72.3c-19.3-22.3,8.4-24.7-10.9-46.2s-17.3-33.9-4.3-34.9
		s-7-29.4-7-29.4C1678.1,150.5,1835.7,333.3,1835.7,333.3z"/>
	<path class="st2" d="M86.2,333.3c0,0,157.6-182.8,177.4-182.8s232.8,182.8,232.8,182.8H86.2z"/>
	<path class="st3" d="M86.2,333.3h86.7c9.1-9.4,51.2-52.5,68.4-72.3c19.3-22.3-8.4-24.7,10.9-46.2s17.4-33.9,4.4-34.9s7-29.4,7-29.4
		C243.8,150.5,86.2,333.3,86.2,333.3z"/>
	<path class="st2" d="M320.3,333.3c0,0,200.2-242.9,225.3-242.9s295.8,242.9,295.8,242.9H320.3z"/>
	<path class="st3" d="M320.3,333.3h110.2c11.6-12.4,65.1-69.8,86.8-96c24.5-29.6-10.6-32.8,13.8-61.3s22.1-45.1,5.6-46.4
		s8.9-39.1,8.9-39.1C520.5,90.4,320.3,333.3,320.3,333.3z"/>
	<g>
		<defs>
			<path id="SVGID_3_" d="M0.6,184.8v148.9h214c0,0-175.4-167.3-191.6-167.3C19.7,166.4,11.5,173.5,0.6,184.8z"/>
		</defs>
		<clipPath id="SVGID_4_">
			<use xlink:href="#SVGID_3_"  style="overflow:visible;"/>
		</clipPath>
		<g class="st4">
			<path class="st2" d="M-122.9,333.7c0,0,129.7-167.3,145.9-167.3s191.6,167.3,191.6,167.3H-122.9z"/>
			<path class="st3" d="M-122.9,333.7h71.4c7.5-8.6,42.2-48,56.3-66.1c15.9-20.4-6.9-22.6,9-42.3s14.3-31.1,3.6-32
				s5.7-26.9,5.7-26.9C6.8,166.4-122.9,333.7-122.9,333.7z"/>
		</g>
	</g>
	<path class="st2" d="M633.7,367.3c0,0,157.6-182.8,177.4-182.8s232.8,182.8,232.8,182.8H633.7z"/>
	<path class="st3" d="M633.7,367.3h86.7c9.2-9.4,51.2-52.5,68.4-72.3c19.3-22.3-8.4-24.7,10.9-46.2s17.4-33.9,4.4-34.9
		s7-29.4,7-29.4C791.3,184.5,633.7,367.3,633.7,367.3z"/>
	<path class="st2" d="M867.8,367.3c0,0,200.2-242.9,225.3-242.9s295.8,242.9,295.8,242.9H867.8z"/>
	<path class="st3" d="M867.8,367.3h110.1c11.6-12.4,65.1-69.8,86.8-96c24.5-29.6-10.6-32.8,13.9-61.3s22.1-45.1,5.6-46.4
		s8.9-39.1,8.9-39.1C1068,124.4,867.8,367.3,867.8,367.3z"/>
	<path class="st5" d="M0.5,333.2c0,0,68.4-48.6,104.4-48.9s113.2,48.9,113.2,48.9H0.5z"/>
	<path class="st5" d="M207.8,333.6c0,0,107.9-63.6,126.1-64.6s95.7,64.6,95.7,64.6L207.8,333.6z"/>
	<path class="st5" d="M419.5,333.6c0,0,166.7-98.2,194.7-99.8S762,333.6,762,333.6H419.5z"/>
	<path class="st5" d="M1159.1,333.2c0,0,68.4-48.6,104.4-48.9s113.2,48.9,113.2,48.9H1159.1z"/>
	<path class="st5" d="M1366.5,333.6c0,0,107.9-63.6,126.1-64.6s95.7,64.6,95.7,64.6H1366.5z"/>
	<path class="st5" d="M1578.2,333.6c0,0,166.7-98.2,194.7-99.8s147.8,99.8,147.8,99.8H1578.2z"/>
	<rect x="0.6" y="333.6" class="st6" width="1919.3" height="146.4"/>
	<path class="st7" d="M417,210.5c0,1.5-1.2,2.7-2.7,2.7s-2.7-1.2-2.7-2.7s1.2-2.7,2.7-2.7c0,0,0,0,0,0
		C415.8,207.8,417,209,417,210.5z"/>
	<ellipse class="st8" cx="841.4" cy="405.9" rx="59.5" ry="13.1"/>
	<ellipse class="st8" cx="1625.9" cy="408.1" rx="59.4" ry="13.1"/>
	<ellipse class="st8" cx="1826.2" cy="445.5" rx="82.4" ry="18.2"/>
	<ellipse class="st8" cx="1221" cy="441.4" rx="91.5" ry="20.2"/>
	<ellipse class="st8" cx="517.5" cy="399.5" rx="31.7" ry="7"/>
	<ellipse class="st8" cx="1011.3" cy="377" rx="31.7" ry="7"/>
	<ellipse class="st8" cx="1252.8" cy="363.5" rx="31.7" ry="7"/>
	<path class="st8" d="M54.6,361.8c0,2.5-9.2,4.5-20.5,4.5s-20.5-2-20.5-4.5s9.2-4.5,20.5-4.5S54.6,359.3,54.6,361.8z"/>
	<path class="st8" d="M651.5,361.8c0,2.3-8.5,4.2-19,4.2s-19-1.9-19-4.2s8.5-4.2,19-4.2S651.5,359.5,651.5,361.8z"/>
	<path class="st8" d="M938.8,357.6c0,2.3-8.5,4.2-18.9,4.2s-19-1.9-19-4.2s8.5-4.2,19-4.2S938.8,355.3,938.8,357.6z"/>
	<path class="st8" d="M1460,384c0,2.3-8.5,4.2-19,4.2s-18.9-1.9-18.9-4.2s8.5-4.2,18.9-4.2S1460,381.7,1460,384z"/>
	<path class="st8" d="M1805.1,370c0,2.3-8.5,4.2-19,4.2s-19-1.9-19-4.2s8.5-4.2,19-4.2S1805.1,367.7,1805.1,370z"/>
	<ellipse class="st8" cx="561.5" cy="346.6" rx="12.2" ry="2.7"/>
	<ellipse class="st8" cx="148.4" cy="404.2" rx="40.8" ry="9"/>
	<g>
		<defs>
			<path id="SVGID_5_" d="M681,445.5c-55.3,0-100.2,9.9-100.2,22.1c0,4.6,6.4,8.9,17.3,12.4h165.8c10.9-3.5,17.3-7.8,17.3-12.4
				C781.2,455.4,736.3,445.5,681,445.5z"/>
		</defs>
		<clipPath id="SVGID_6_">
			<use xlink:href="#SVGID_5_"  style="overflow:visible;"/>
		</clipPath>
		<g class="st9">
			<ellipse class="st8" cx="681" cy="467.6" rx="100.2" ry="22.1"/>
		</g>
	</g>
	<g>
		<defs>
			<path id="SVGID_7_" d="M15.9,435.6c-5.2,0-10.3,0.1-15.3,0.4v30.3c4.9,0.2,10,0.4,15.3,0.4c38.8,0,70.3-7,70.3-15.5
				S54.8,435.6,15.9,435.6z"/>
		</defs>
		<clipPath id="SVGID_8_">
			<use xlink:href="#SVGID_7_"  style="overflow:visible;"/>
		</clipPath>
		<g class="st10">
			<ellipse class="st8" cx="15.9" cy="451.1" rx="70.3" ry="15.5"/>
		</g>
	</g>
	<path class="st5" d="M1313.2,356.3c0,0,98.4,14.4,188.9,14.4s158.3-14.4,158.3-14.4l0.2-13.3h-347.3V356.3z"/>
	<path class="st11" d="M1486.9,127c23.2,75.9,91.5,132.1,173.7,137.2v91.7h-347.3v-91.7C1395.4,259,1463.7,202.9,1486.9,127z"/>
	<polygon class="st12" points="1659.4,329.3 1313,329.3 1313,355.9 1660.6,355.9 	"/>
	<path class="st13" d="M1550.2,234c0,0-53-55.4-63.3-80.8c0,0-38,60.5-63.3,80.8c-17,13.6,17.3-28.2,17.3-28.2s36.7-39.6,46-78.8
		c0,0,12,51.5,63.3,94V234z"/>
	<path class="st14" d="M1617.4,273.3C1516.9,243.9,1486.9,127,1486.9,127c23.2,75.9,91.5,132.1,173.7,137.2v91.7l-43.1-14.5
		C1614.4,326.9,1617.4,273.3,1617.4,273.3z"/>
	<path class="st14" d="M1356.3,273.3c100.5-29.4,130.5-146.3,130.5-146.3c-23.2,75.9-91.5,132.1-173.7,137.2v91.7l43.1-14.5
		C1359.3,326.9,1356.3,273.3,1356.3,273.3z"/>
	<path class="st15" d="M1657.9,264.2c0,1.5,1.2,2.7,2.7,2.7c1.5,0,2.7-1.2,2.7-2.7c0-1.5-1.2-2.7-2.7-2.7c0,0,0,0,0,0
		C1659.1,261.6,1657.9,262.8,1657.9,264.2C1657.9,264.2,1657.9,264.2,1657.9,264.2z"/>
	<line class="st16" x1="1660.6" y1="264.2" x2="1704.4" y2="364.4"/>
	<path class="st15" d="M1613.6,273.9c0,1.5,1.2,2.7,2.7,2.7c1.5,0,2.7-1.2,2.7-2.6c0-1.5-1.2-2.7-2.6-2.7c0,0,0,0,0,0
		C1614.8,271.2,1613.6,272.4,1613.6,273.9z"/>
	<line class="st16" x1="1616.2" y1="273.9" x2="1631.6" y2="366.4"/>
	<circle class="st15" cx="1357.6" cy="273.9" r="2.7"/>
	<line class="st16" x1="1357.3" y1="273.9" x2="1341.9" y2="366.4"/>
	<path class="st17" d="M1547.5,340.8c0,0,20.5-57.9,12.5-70.7c-7.2-11.5-131.4-11.2-142.8,0s10.2,70.7,10.2,70.7H1547.5z"/>
	<path class="st18" d="M1574.8,338.2c0,0,2.4-16.4,0-25.4s-5.8-9.5-13.4-9.5s-32.6-3-46.1-2.3c-15.8,0.8-31.7,0.8-47.5,0
		c-17.8-0.9-41.3,4.4-51.4,4.4s-16.4,2.9-16.4,14.1v21.3h174.8L1574.8,338.2z"/>
	<path class="st19" d="M1485.2,287.6c-0.9-3.6-1.9-7.2-3.2-10.8c-2-5.4-1.1-6.1,1.6-5.4s5.9,2.9,8.6,2.9s17.7,0.6,21.3,0.9
		s13.3-4,14.7-3.1s1.7,4.2-1.2,8.4c-0.9,2.2,1.3,9.2,0.1,14.1s-3.4,11.9-3.4,11.9s4,7.2,2.7,8.4s-8.1-3.4-9.5-3s-18.4,1.1-20.7,0
		s-11.5,2.6-13,2.1s-1.3-2.4,0-4.3s3.5-6.5,2.9-8.9S1485.7,289.4,1485.2,287.6z"/>
	<path class="st20" d="M1528.2,272.1c1,1.6,1.1,3.7,0.2,5.4c-1.5,3.1-3.7,5.4-3.9,6.6"/>
	<path class="st20" d="M1523.6,302.9c0,0,0.8,6.9,3,10.4"/>
	<path class="st21" d="M1484.2,279.3c0,0,14.2-2.5,13.3,0s-3.3,6.6-3.3,8.8c-0.2,4.1-0.9,8.2-2.1,12.1c-1.2,3.4,1.7,8.4,1.7,10.8
		s-7,0.1-9.6,0s-17.3,0-21.5-0.4s-5.2-2-7.6-2s-10,1.8-9.4-0.6s6.6-12,6.9-12.9s0-10.7,1.5-16.1c0.4-3.4-2.2-7.2-1-8.6
		s7.5,1.5,11,5.7C1466.9,278.4,1472.7,275.2,1484.2,279.3z"/>
	<path class="st20" d="M1496.9,278.5c0,0,1.5,1.2-0.1,3.4s-2.9,5.5-2.8,7.5s-1.5,7.3-1.5,7.3"/>
	<path class="st22" d="M1514.1,310c0.6-1.7,0.6-3.6,0-5.4c-0.5-1.4-0.8-2.8-1-4.2c0,0,3.2-6.7,1.5-8.1s-4.3,0.4-6.6,1.4
		c-1.7,0.7-3.5,1.3-5.3,1.8c0,0-6.1,0.6-9,1.1s-12.6,0.4-14.2,1.3s-10-1.5-12.9-1.2s-3,0.7-1.8,1.8s2.8,3,2.8,3s-1.3,4.3,0,6.3
		s3,4.3,3,4.3c0.1,1.1-0.1,2.2-0.7,3.2c-0.9,1.1-1.6,4,0.2,4s6.6-1.8,6.6-1.8s10.8,0.4,15.2-0.4s17.3-2.7,17.3-2.7s5.8,1.4,6.3,0.1
		S1514.1,310,1514.1,310z"/>
	<path class="st20" d="M1506.8,296.3c0,0-3.6-1.2-14.3,0.4c-6.2,0.9-8-0.3-11.6,0.8c-1.9,0.5-3.8,1.2-5.7,2.1"/>
	<path class="st20" d="M1512.7,297.1c0.1,1.9,0.4,3.7,0.8,5.5c0.6,1.9,1.7,5.9,0.6,7.3"/>
	<path class="st16" d="M1542.3,226c0,0-62.7,32-110,0"/>
	<path class="st15" d="M1537.1,228.8c0,0,1.6,1.8,0.3,2.4s-2.4,1.1-2.4,1.1s-0.5,0.2-1.3-2.1L1537.1,228.8z"/>
	<path class="st15" d="M1523.3,233.9c0,0,0.6,2.2,0,2.5c-1,0.3-2.1,0.4-3.2,0.5l-0.4-2.1L1523.3,233.9z"/>
	<path class="st15" d="M1508.6,237.6c0,0,1.2,2.6-0.6,2.6s-2.4,0.6-2.8,0c-0.3-0.7-0.5-1.4-0.4-2.2L1508.6,237.6z"/>
	<path class="st15" d="M1493.5,239.7c0,0,0.8,2.9-0.5,3.1s-3.3,0.6-3.3-0.9v-1.5L1493.5,239.7z"/>
	<path class="st15" d="M1478.4,240.2c0,0,0.7,3-1.3,3s-2.8-0.4-2.8-1.2c0-0.7,0.1-1.3,0.3-2L1478.4,240.2z"/>
	<path class="st15" d="M1464.5,239.1c0,0,0.2,2.4-1.6,2.1s-3-0.6-2.7-1.6l0.4-1.6L1464.5,239.1z"/>
	<path class="st15" d="M1450.5,235.4c0,0-0.3,2.6-2.5,1.6s-1.7-2-1.1-3L1450.5,235.4z"/>
	<path class="st15" d="M1439.7,230.7c0,0-1.1,2.5-2.6,1.8s-2.7-1.4-2.2-2.3c0.4-0.6,0.9-1.1,1.4-1.6L1439.7,230.7z"/>
	<path class="st23" d="M1532.9,236.7c0,3.2,2.6,5.7,5.8,5.7c3.2,0,5.7-2.6,5.7-5.8c0-3.2-2.6-5.7-5.8-5.7
		C1535.5,230.9,1532.9,233.5,1532.9,236.7z"/>
	<path class="st23" d="M1517.2,241.6c0,3.2,2.6,5.8,5.8,5.8s5.8-2.6,5.8-5.7c0-3.2-2.6-5.8-5.8-5.8c0,0,0,0,0,0
		C1519.8,235.9,1517.2,238.4,1517.2,241.6z"/>
	<path class="st23" d="M1501.8,245.9c0,3.2,2.6,5.8,5.8,5.8s5.8-2.6,5.8-5.8s-2.6-5.8-5.8-5.8S1501.8,242.7,1501.8,245.9
		L1501.8,245.9z"/>
	<path class="st23" d="M1486,248.2c0,3.2,2.6,5.8,5.8,5.8s5.8-2.6,5.8-5.8s-2.6-5.8-5.8-5.8S1486,245,1486,248.2L1486,248.2z"/>
	<path class="st23" d="M1469.9,248.2c0,3.2,2.6,5.8,5.8,5.8s5.8-2.6,5.8-5.7c0-3.2-2.6-5.8-5.8-5.8c0,0,0,0,0,0
		C1472.5,242.4,1469.9,245,1469.9,248.2z"/>
	<path class="st23" d="M1454.4,246.3c0,3.2,2.6,5.8,5.8,5.8s5.8-2.6,5.8-5.8s-2.6-5.8-5.8-5.8C1457,240.5,1454.4,243.1,1454.4,246.3
		C1454.4,246.3,1454.4,246.3,1454.4,246.3z"/>
	<path class="st23" d="M1440.6,242c0,3.2,2.6,5.8,5.8,5.8c3.2,0,5.8-2.6,5.8-5.8c0-3.2-2.6-5.8-5.8-5.8c0,0,0,0,0,0
		C1443.2,236.3,1440.6,238.8,1440.6,242z"/>
	<path class="st23" d="M1427.5,236.2c0,3.2,2.6,5.8,5.8,5.8s5.8-2.6,5.8-5.8s-2.6-5.8-5.8-5.8l0,0
		C1430.1,230.5,1427.5,233.1,1427.5,236.2z"/>
	<path class="st24" d="M1537.5,232.9c0.7,0.3,1.3,0.7,1.9,1.3c0.3,0.3,0.6,0.8,0.7,1.2c0.2,0.6-0.1,1.2-0.7,1.4
		c-0.5,0.2-1,0-1.2-0.4c-0.3-0.4-0.5-0.9-0.5-1.4c0-0.1,0-0.3,0.1-0.4c0.2-0.1,0.4,0.1,0.5,0.3c0.3,0.7,0.5,1.4,0.5,2.1
		c0,0.3,0,0.6-0.3,0.8c-0.2,0.1-0.5,0.1-0.7,0c-0.2-0.1-0.4-0.3-0.5-0.5c-0.7-1.1-0.9-2.4-0.8-3.6"/>
	<path class="st24" d="M1523.5,238c0.5,0.6,0.8,1.3,1,2c0.1,0.5,0.1,1,0,1.4c-0.2,0.5-0.6,0.8-1.1,0.8c-0.5,0-0.9-0.4-1.1-0.9
		c-0.1-0.5,0-1,0.2-1.4c0.1-0.1,0.2-0.3,0.3-0.3s0.3,0.3,0.3,0.5c0,0.7-0.2,1.4-0.6,2.1c-0.1,0.3-0.3,0.5-0.6,0.6
		c-0.3,0-0.5-0.1-0.6-0.3c-0.1-0.2-0.2-0.5-0.2-0.7c-0.1-1.3,0.3-2.5,1-3.6"/>
	<path class="st24" d="M1508.1,242.4c0.5,0.6,0.8,1.3,1,2c0.1,0.5,0.1,1,0,1.4c-0.2,0.5-0.6,0.8-1.1,0.8c-0.5,0-0.9-0.4-1.1-0.9
		c-0.1-0.5,0-1,0.2-1.4c0.1-0.1,0.2-0.2,0.3-0.3c0.2,0,0.3,0.3,0.3,0.5c0,0.7-0.2,1.4-0.6,2.1c-0.1,0.3-0.3,0.5-0.6,0.6
		c-0.3,0-0.5-0.1-0.6-0.3c-0.1-0.2-0.2-0.5-0.2-0.7c-0.1-1.3,0.3-2.5,1-3.6"/>
	<path class="st24" d="M1492.3,245c0.5,0.6,0.8,1.3,1,2c0.1,0.5,0.1,1,0,1.4c-0.2,0.5-0.6,0.8-1.1,0.8c-0.5,0-0.9-0.4-1.1-0.9
		c-0.1-0.5,0-1,0.3-1.4c0.1-0.1,0.2-0.2,0.3-0.2s0.3,0.3,0.3,0.5c0,0.7-0.2,1.4-0.6,2.1c-0.1,0.3-0.3,0.5-0.6,0.6
		c-0.3,0-0.5-0.1-0.6-0.3c-0.1-0.2-0.2-0.5-0.2-0.7c-0.1-1.3,0.3-2.5,1-3.6"/>
	<path class="st24" d="M1476.5,245.3c0.5,0.6,0.8,1.3,1,2c0.1,0.5,0.1,1,0,1.4c-0.2,0.5-0.6,0.8-1.1,0.8c-0.5,0-0.9-0.4-1.1-0.9
		c-0.1-0.5,0-1,0.3-1.4c0.1-0.1,0.2-0.3,0.3-0.3s0.3,0.3,0.3,0.5c0,0.7-0.2,1.4-0.6,2.1c-0.1,0.3-0.3,0.5-0.6,0.6
		c-0.3,0-0.5-0.1-0.6-0.3c-0.1-0.2-0.2-0.5-0.2-0.7c-0.1-1.3,0.3-2.5,1-3.6"/>
	<path class="st24" d="M1461.3,243.1c0.4,0.7,0.6,1.4,0.6,2.1c0,0.5-0.1,1-0.3,1.4c-0.2,0.4-0.7,0.7-1.2,0.6
		c-0.5-0.1-0.8-0.6-0.9-1.1c0-0.5,0.2-1,0.5-1.4c0.1-0.1,0.2-0.2,0.3-0.2c0.2,0,0.2,0.3,0.2,0.5c-0.2,0.7-0.5,1.4-1,1.9
		c-0.1,0.3-0.4,0.4-0.7,0.4c-0.2,0-0.5-0.2-0.5-0.4c-0.1-0.2-0.1-0.5,0-0.7c0.2-1.3,0.8-2.4,1.7-3.3"/>
	<path class="st24" d="M1447.5,238.4c0.4,0.7,0.6,1.4,0.6,2.1c0,0.5-0.1,1-0.3,1.4c-0.2,0.4-0.7,0.7-1.2,0.6
		c-0.5-0.1-0.8-0.6-0.9-1.1c0-0.5,0.2-1,0.5-1.4c0.1-0.1,0.2-0.2,0.3-0.2c0.2,0,0.2,0.3,0.2,0.6c-0.2,0.7-0.5,1.4-1,1.9
		c-0.1,0.3-0.4,0.4-0.7,0.4c-0.2,0-0.5-0.2-0.5-0.4c-0.1-0.2-0.1-0.5,0-0.7c0.2-1.3,0.8-2.4,1.7-3.3"/>
	<path class="st24" d="M1435.4,233.9c0,0.8-0.1,1.5-0.4,2.2c-0.2,0.5-0.5,0.8-0.9,1.1c-0.4,0.3-0.9,0.3-1.3,0
		c-0.4-0.3-0.5-0.9-0.3-1.4c0.2-0.5,0.6-0.8,1.1-1c0.1-0.1,0.3-0.1,0.4,0c0.2,0.1,0,0.4-0.1,0.6c-0.5,0.5-1.1,1-1.7,1.3
		c-0.2,0.2-0.5,0.2-0.8,0.1c-0.2-0.1-0.3-0.4-0.3-0.6c0-0.2,0.1-0.5,0.3-0.7c0.7-1.1,1.8-1.8,3-2.2"/>
	<line class="st16" x1="1313" y1="264.2" x2="1269.1" y2="364.4"/>
	<path class="st15" d="M1310.6,264.2c0,1.5,1.2,2.7,2.7,2.7c1.5,0,2.7-1.2,2.7-2.7s-1.2-2.7-2.7-2.7S1310.6,262.8,1310.6,264.2
		L1310.6,264.2z"/>
	<g>
		<defs>
			<path id="SVGID_9_" d="M0,307.8c89.4-47.4,93.5-120,93.5-120c-34.1,6-66.1,20.2-93.5,41.4V307.8z"/>
		</defs>
		<clipPath id="SVGID_10_">
			<use xlink:href="#SVGID_9_"  style="overflow:visible;"/>
		</clipPath>
		<g class="st25">
			<path class="st26" d="M-78.1,335.8c0,0,41-124.4,171.6-148C93.5,187.8,87.3,298.5-78.1,335.8z"/>
			<path class="st17" d="M-78.1,335.8c11.6-12.7,23.9-24.6,36.4-36.4s25.3-23.1,38.3-34.3s26.2-22,39.7-32.5
				c6.8-5.2,13.6-10.4,20.6-15.4s14-9.9,21.3-14.4c-12.2,12.1-24.6,23.9-37.2,35.5s-25.4,22.9-38.4,34s-26.1,22-39.5,32.7
				S-64,326-78.1,335.8z"/>
		</g>
	</g>
	<g>
		<defs>
			<path id="SVGID_11_" d="M1920,292.6c-89.4-47.4-93.5-120-93.5-120c34.1,6,66.1,20.2,93.5,41.4V292.6z"/>
		</defs>
		<clipPath id="SVGID_12_">
			<use xlink:href="#SVGID_11_"  style="overflow:visible;"/>
		</clipPath>
		<g class="st27">
			<path class="st26" d="M1998.1,320.6c0,0-41-124.4-171.6-148C1826.5,172.6,1832.7,283.3,1998.1,320.6z"/>
			<path class="st17" d="M1998.1,320.6c-14.2-9.8-27.7-20.2-41.1-30.9s-26.6-21.6-39.5-32.7s-25.8-22.4-38.4-34s-25-23.3-37.2-35.5
				c7.3,4.5,14.3,9.5,21.3,14.5s13.8,10.2,20.6,15.4c13.5,10.5,26.7,21.4,39.7,32.6s25.8,22.6,38.3,34.3
				C1974.2,296,1986.5,307.9,1998.1,320.6z"/>
		</g>
	</g>
	<g>
		<defs>
			<path id="SVGID_13_" d="M1798.9,31.4c1.2-2.1,3.8-2.8,5.8-1.7c1.5,0.9,2.4,2.6,2.2,4.3c5.8,2.8,11.3,5.6,16.6,8.5
				c-2.1-3.8-5.5-11.2-4.1-17.1c-0.1,0-0.1-0.1-0.2-0.1c-2-1.2-2.7-3.8-1.6-5.8s3.8-2.7,5.8-1.6c2,1.2,2.7,3.8,1.6,5.8
				c-0.8,1.5-2.5,2.3-4.2,2.1c-1.6,7,4.6,17,5.3,18.1c11.7,6.6,23,14,33.7,22.2l0.3,0.1l0,0c7.1,5.4,13.9,11.3,20.3,17.5
				c0.4-3.3,1-6.6,2-9.8c0.7-2.3,1.6-4.5,2.6-6.7c-0.3-2.3-0.9-4.5-1.9-6.5c-1.6-3.5-4.6-6.1-8.3-7c-1.2,2.1-3.8,2.9-5.9,1.7
				s-2.9-3.8-1.7-5.9s3.8-2.9,5.9-1.7c1.6,0.9,2.5,2.7,2.2,4.5c7.6,2,10.1,9.2,10.9,12.8c1.8-3.2,4.2-6,7.1-8.3
				c-1.2-2.1-0.4-4.7,1.6-5.8c2.1-1.2,4.7-0.4,5.8,1.6c1.2,2.1,0.4,4.7-1.6,5.8c-1.3,0.7-2.9,0.7-4.2,0c-0.2-0.1-0.4-0.3-0.6-0.4
				c-10.7,8.2-12.3,25-12.5,27.1c1.4,1.4,2.7,2.7,4,4.1c0.9,0.8,1.4,1.3,1.4,1.4h-0.1c11.3,11.7,21.2,24.6,29.5,38.6
				c1.4,2.5,2.8,4.9,4,7.3v3.3c-1.6-3.2-3.4-6.5-5.4-9.8c-2.4-4.1-5.1-8.4-8.3-12.8c-3.3-2.4-6.9-4.3-10.7-5.8
				c0.3,5.8-2.1,11.4-6.5,15.2c0.5,2.3-1,4.6-3.3,5.1c-2.3,0.5-4.6-1-5.1-3.3c-0.5-2.3,1-4.6,3.3-5.1c1.1-0.2,2.2-0.1,3.1,0.5
				c0.6,0.3,1.1,0.8,1.4,1.3c4.1-3.6,6.2-8.9,5.6-14.3c-7.5-2.6-14.2-2.6-20,0c0.7,2.2-0.5,4.7-2.7,5.4c-2.2,0.7-4.7-0.5-5.4-2.7
				s0.5-4.7,2.7-5.4c1.7-0.6,3.6,0,4.7,1.4c11.9-5.2,24.6,0.8,30.6,4.3c-6.1-8.3-12.7-16.1-19.9-23.4c-4.2-3.8-17-14-29.7-9
				c-0.1,0.5-0.2,1.1-0.5,1.6c-1.2,2.1-3.8,2.8-5.9,1.7c-2.1-1.2-2.8-3.8-1.7-5.9c1.2-2.1,3.8-2.8,5.9-1.7c1,0.6,1.8,1.6,2.1,2.8
				c8.2-2.9,16.3-0.2,22.3,3.3c-5.5-5.2-11.6-10.4-18.3-15.5c-5.8-2.9-12-5.2-18.4-6.6c-3.3,2.5-5.6,6-6.4,10.1
				c-1.2,5.5,0.2,11.8,4.1,18.7c2.2-0.7,4.7,0.5,5.4,2.7c0.7,2.2-0.5,4.7-2.7,5.4c-2.2,0.7-4.7-0.5-5.4-2.7
				c-0.4-1.1-0.3-2.4,0.3-3.4c0.3-0.5,0.6-0.9,1.1-1.3c-4.1-7.2-5.6-13.8-4.3-19.8c0.9-3.9,3-7.4,6-10.1c-8.4-1.5-17.4-1-23.2,5.2
				c1.6,1.7,1.5,4.4-0.2,6.1c-1.7,1.6-4.4,1.5-6.1-0.2c-1.6-1.7-1.5-4.4,0.2-6.1c1.3-1.2,3.2-1.5,4.8-0.7c5.6-6.2,14.8-8,26.9-5.4
				c4.2,0.9,8.3,2.2,12.2,3.9c-14.8-10.7-30.5-20-46.9-27.7c0,0,0,0.1-0.1,0.1c-1.2,2.1-3.8,2.8-5.8,1.6
				C1798.5,36,1797.7,33.4,1798.9,31.4L1798.9,31.4z M1920.7,151.6v-1.7c-4.7-2.4-10.6-3.9-16.6-1.5c-0.3-0.4-0.7-0.7-1.1-0.9
				c-2.1-1.2-4.7-0.5-5.9,1.6c-1.2,2.1-0.5,4.7,1.6,5.9c2.1,1.2,4.7,0.5,5.9-1.6c0,0,0,0,0,0c0.6-1.1,0.7-2.4,0.3-3.6
				C1910.7,147.6,1916.3,149.3,1920.7,151.6z"/>
		</defs>
		<clipPath id="SVGID_14_">
			<use xlink:href="#SVGID_13_"  style="overflow:visible;"/>
		</clipPath>
		<g class="st28">
			<path class="st29" d="M1936.1,182.5c0,0-9.9-91.5-131.3-148.6"/>
			<path class="st29" d="M1907.7,116.6c0,0-19.2-14.8-35.7-5.4"/>
			<path class="st29" d="M1881,85.3c0,0,1-20,13.9-28.8"/>
			<path class="st29" d="M1859.7,67c0,0-34.4-18.7-47,0.9"/>
			<path class="st29" d="M1825.5,44.5c0,0-9-13.6-4.5-21.4"/>
			<path class="st29" d="M1885.8,67.3c0,0-1-13.4-12.9-14.7"/>
			<path class="st29" d="M1929.2,157c0,0-13.6-14.4-26.8-6.9"/>
			<path class="st29" d="M1895.5,110.1c0.9,7-2.4,13.8-8.4,17.4"/>
			<path class="st29" d="M1840.4,60c0,0-16,10-1.3,32.5"/>
			<path class="st29" d="M1886.7,91.1c0,0-16.8-17.8-33.3-10"/>
			<path class="st12" d="M1897.2,149.1c-1.2,2.1-0.5,4.7,1.6,5.9c2.1,1.2,4.7,0.5,5.9-1.6c1.2-2.1,0.5-4.7-1.6-5.8
				C1901,146.4,1898.4,147.1,1897.2,149.1z"/>
			<path class="st12" d="M1881.9,125.3c-1.2,2.1-0.4,4.7,1.6,5.8c2.1,1.2,4.7,0.4,5.8-1.6c1.2-2.1,0.4-4.7-1.6-5.8
				C1885.7,122.5,1883.1,123.2,1881.9,125.3C1881.9,125.3,1881.9,125.3,1881.9,125.3z"/>
			<path class="st12" d="M1867,110c-1.2,2.1-0.4,4.7,1.6,5.8s4.7,0.4,5.8-1.6c1.2-2.1,0.4-4.7-1.6-5.8
				C1870.8,107.2,1868.2,107.9,1867,110C1867,110,1867,110,1867,110z"/>
			<path class="st12" d="M1867.3,49.5c-1.2,2.1-0.5,4.7,1.6,5.9c2.1,1.2,4.7,0.5,5.9-1.6c1.2-2.1,0.5-4.7-1.6-5.8
				C1871.1,46.7,1868.5,47.5,1867.3,49.5z"/>
			<path class="st12" d="M1893.2,52.6c-1.2,2.1-0.5,4.7,1.6,5.9c2.1,1.2,4.7,0.5,5.9-1.6c1.2-2.1,0.5-4.7-1.6-5.9c0,0,0,0,0,0
				C1897,49.8,1894.4,50.5,1893.2,52.6z"/>
			<path class="st12" d="M1835.8,91.5c-1.2,2.1-0.4,4.7,1.6,5.8s4.7,0.4,5.8-1.6c1.2-2.1,0.4-4.7-1.6-5.8
				C1839.6,88.7,1837,89.5,1835.8,91.5C1835.8,91.5,1835.8,91.5,1835.8,91.5z"/>
			<path class="st12" d="M1847.1,78.5c-1.2,2.1-0.4,4.7,1.6,5.8c2.1,1.2,4.7,0.4,5.8-1.6c1.2-2.1,0.4-4.7-1.6-5.8
				C1850.9,75.7,1848.3,76.5,1847.1,78.5C1847.1,78.5,1847.1,78.5,1847.1,78.5z"/>
			<path class="st12" d="M1808.6,66.5c-1.2,2.1-0.4,4.7,1.6,5.8s4.7,0.4,5.8-1.6c1.2-2.1,0.4-4.7-1.6-5.8
				C1812.4,63.7,1809.8,64.4,1808.6,66.5C1808.6,66.5,1808.6,66.5,1808.6,66.5z"/>
			<path class="st12" d="M1817.5,19.4c-1.2,2.1-0.4,4.7,1.6,5.8s4.7,0.4,5.8-1.6c1.2-2.1,0.4-4.7-1.6-5.8
				C1821.3,16.7,1818.7,17.4,1817.5,19.4C1817.5,19.4,1817.5,19.4,1817.5,19.4z"/>
			<path class="st12" d="M1798.9,31.4c-1.2,2.1-0.4,4.7,1.6,5.8c2.1,1.2,4.7,0.4,5.8-1.6c1.2-2.1,0.4-4.7-1.6-5.8
				C1802.7,28.6,1800,29.3,1798.9,31.4C1798.9,31.4,1798.9,31.4,1798.9,31.4z"/>
		</g>
	</g>
	<g>
		<defs>
			<path id="SVGID_15_" d="M122.4,45.1c1.2,2.1,0.5,4.7-1.6,5.9c-2.1,1.2-4.7,0.5-5.9-1.6l0,0l-0.1-0.2
				c-16.5,7.8-32.2,17.1-46.9,27.7c4-1.6,8.1-2.9,12.2-3.9c12-2.6,21.3-0.8,26.9,5.4c2.1-1,4.7-0.1,5.7,2s0.1,4.7-2,5.7
				s-4.7,0.1-5.7-2c-0.8-1.6-0.5-3.5,0.8-4.8c-5.8-6.2-14.8-6.7-23.2-5.2c3,2.6,5.1,6.2,6,10.1c1.3,5.9-0.1,12.6-4.3,19.8
				c0.4,0.3,0.8,0.8,1.1,1.2c1.2,2.1,0.4,4.7-1.7,5.9s-4.7,0.4-5.9-1.7s-0.4-4.7,1.7-5.9c1.1-0.6,2.3-0.7,3.5-0.3
				c4-6.9,5.4-13.2,4.1-18.7c-0.9-4-3.2-7.6-6.5-10.1c-6.4,1.5-12.6,3.7-18.4,6.6C55.6,86.3,49.5,91.5,44,96.6
				c6-3.5,14.1-6.2,22.3-3.3c0.3-1.1,1-2.1,2-2.7c2.1-1.2,4.7-0.4,5.8,1.6s0.4,4.7-1.6,5.8c-2.1,1.2-4.7,0.4-5.8-1.6
				c-0.3-0.5-0.4-1-0.5-1.6c-12.7-4.9-25.5,5.3-29.7,9c-7.2,7.3-13.9,15.2-19.9,23.4c6-3.6,18.8-9.5,30.6-4.3c0.3-0.4,0.7-0.7,1.2-1
				c2.1-1.2,4.7-0.5,5.9,1.6c1.2,2.1,0.5,4.7-1.6,5.9c-2.1,1.2-4.7,0.5-5.9-1.6c0,0,0,0,0,0c-0.6-1.1-0.7-2.3-0.3-3.5
				c-6.9-3-14.1-2-20,0c-0.5,5.4,1.5,10.7,5.6,14.3c1.3-2,4-2.5,6-1.1s2.5,4,1.1,6c-1.3,2-4,2.5-6,1.1c-0.5-0.4-1-0.9-1.3-1.4
				c-0.5-0.9-0.7-2-0.4-3.1c-4.4-3.7-6.8-9.3-6.6-15.1c-3.8,1.5-7.4,3.4-10.7,5.8c-3.2,4.5-5.9,8.8-8.3,12.9
				c-2.2,3.7-4.1,7.3-5.8,10.8v-8c0.2,1.4,0.4,2.7,0.5,3.8c1.3-2.4,2.6-4.8,4.1-7.3c8.3-14,18.2-26.9,29.5-38.6l0,0
				c0,0,0.5-0.6,1.4-1.4c1.3-1.3,2.7-2.7,4-4c-0.2-2.3-1.8-19-12.5-27.2c-0.2,0.2-0.4,0.3-0.6,0.4c-2.1,1.2-4.7,0.4-5.9-1.6
				c-1.2-2.1-0.4-4.7,1.6-5.9c2.1-1.2,4.7-0.4,5.9,1.6c0.8,1.3,0.7,3,0,4.3c2.9,2.3,5.3,5.1,7.1,8.3C35.8,75.2,38.4,68,46,66.1
				c-0.4-2.3,1.2-4.5,3.5-4.9c2.3-0.4,4.5,1.2,4.9,3.5c0.4,2.3-1.2,4.5-3.5,4.9c-1.8,0.3-3.5-0.5-4.4-2.1c-3.7,0.9-6.8,3.5-8.3,7
				c-1,2-1.7,4.2-2,6.5c1.1,2.2,1.9,4.4,2.6,6.7c1,3.2,1.6,6.5,2,9.8c6.5-6.2,13.3-12,20.3-17.5v-0.1l0.3-0.1
				c10.7-8.2,22-15.6,33.7-22.2c0.7-1.1,6.9-11.1,5.3-18.1c-2.4,0.3-4.5-1.4-4.7-3.8c-0.3-2.4,1.4-4.5,3.8-4.7
				c2.4-0.3,4.5,1.4,4.7,3.8c0.2,1.7-0.6,3.4-2.1,4.2l-0.2,0.1c1.4,5.9-2.1,13.4-4.2,17.1c5.3-2.9,10.8-5.7,16.6-8.5
				c-0.3-2.3,1.3-4.5,3.7-4.8C119.8,42.6,121.5,43.5,122.4,45.1L122.4,45.1z M16.3,163.5c-0.8,2.2,0.3,4.7,2.5,5.5s4.7-0.3,5.5-2.5
				s-0.3-4.7-2.5-5.5c-1.2-0.4-2.5-0.3-3.6,0.3c-0.4,0.2-0.8,0.6-1.1,0.9c-6.2-2.5-12.3-0.8-17,1.8v1.7
				C4.4,163.1,10.3,161.2,16.3,163.5z"/>
		</defs>
		<clipPath id="SVGID_16_">
			<use xlink:href="#SVGID_15_"  style="overflow:visible;"/>
		</clipPath>
		<g class="st30">
			<path class="st29" d="M-14.9,196.2c0,0,9.9-91.5,131.3-148.6"/>
			<path class="st29" d="M-0.1,153c0,0-0.3-24.3-15.8-30.1"/>
			<path class="st29" d="M13.6,130.3c0,0,19.2-14.8,35.7-5.4"/>
			<path class="st29" d="M40.3,99c0,0-1-20-13.9-28.8"/>
			<path class="st29" d="M61.5,80.7c0,0,34.5-18.7,47,0.9"/>
			<path class="st29" d="M95.7,58.2c0,0,9-13.6,4.5-21.4"/>
			<path class="st29" d="M35.5,81c0,0,1-13.4,12.9-14.7"/>
			<path class="st29" d="M-8,170.7c0,0,13.6-14.4,26.8-6.9"/>
			<path class="st29" d="M25.8,123.8c-0.9,7,2.4,13.8,8.4,17.4"/>
			<path class="st29" d="M80.8,73.7c0,0,16,10,1.3,32.5"/>
			<path class="st29" d="M34.5,104.8c0,0,16.8-17.8,33.3-10"/>
			<path class="st12" d="M24,162.8c1.2,2.1,0.4,4.7-1.6,5.8s-4.7,0.4-5.8-1.6c-1.2-2.1-0.4-4.7,1.6-5.8
				C20.2,160.1,22.8,160.8,24,162.8C24,162.8,24,162.8,24,162.8z"/>
			<path class="st12" d="M39.3,139c1.2,2.1,0.4,4.7-1.6,5.8c-2.1,1.2-4.7,0.4-5.8-1.6c-1.2-2.1-0.4-4.7,1.6-5.8
				C35.5,136.2,38.1,136.9,39.3,139C39.3,139,39.3,139,39.3,139z"/>
			<path class="st12" d="M54.3,123.6c1.2,2.1,0.5,4.7-1.6,5.9c-2.1,1.2-4.7,0.5-5.9-1.6c-1.2-2.1-0.5-4.7,1.6-5.8
				C50.5,120.9,53.1,121.6,54.3,123.6C54.3,123.6,54.3,123.6,54.3,123.6z"/>
			<path class="st12" d="M53.9,63.2c1.2,2.1,0.4,4.7-1.6,5.8c-2.1,1.2-4.7,0.4-5.8-1.6c-1.2-2.1-0.4-4.7,1.6-5.8
				C50.1,60.4,52.7,61.2,53.9,63.2C53.9,63.2,53.9,63.2,53.9,63.2z"/>
			<path class="st12" d="M28,66.3c1.2,2.1,0.4,4.7-1.6,5.8s-4.7,0.4-5.8-1.6c-1.2-2.1-0.4-4.7,1.6-5.8C24.2,63.5,26.8,64.2,28,66.3
				C28,66.3,28,66.3,28,66.3z"/>
			<path class="st12" d="M85.4,105.2c1.2,2.1,0.4,4.7-1.6,5.8s-4.7,0.4-5.8-1.6c-1.2-2.1-0.4-4.7,1.6-5.8
				C81.6,102.4,84.2,103.2,85.4,105.2C85.4,105.2,85.4,105.2,85.4,105.2z"/>
			<path class="st12" d="M74.2,92.2c1.2,2.1,0.5,4.7-1.6,5.9c-2.1,1.2-4.7,0.5-5.9-1.6c-1.2-2.1-0.5-4.7,1.6-5.9c0,0,0,0,0,0
				C70.4,89.5,73,90.2,74.2,92.2z"/>
			<path class="st12" d="M112.7,80.2c1.2,2.1,0.4,4.7-1.6,5.8s-4.7,0.4-5.8-1.6c-1.2-2.1-0.4-4.7,1.6-5.8
				C108.8,77.4,111.5,78.1,112.7,80.2C112.6,80.2,112.6,80.2,112.7,80.2z"/>
			<path class="st12" d="M103.7,33.1c1.2,2.1,0.4,4.7-1.6,5.8s-4.7,0.4-5.8-1.6c-1.2-2.1-0.4-4.7,1.6-5.8
				C99.9,30.4,102.5,31.1,103.7,33.1C103.7,33.1,103.7,33.1,103.7,33.1z"/>
			<path class="st12" d="M122.4,45.1c1.2,2.1,0.4,4.7-1.6,5.8s-4.7,0.4-5.8-1.6c-1.2-2.1-0.4-4.7,1.6-5.8
				C118.6,42.3,121.2,43,122.4,45.1C122.4,45.1,122.4,45.1,122.4,45.1z"/>
		</g>
	</g>
	<polygon class="st26" points="202.8,287.4 472.8,287.4 432.4,379.1 224.9,379.1 196.4,286.2 	"/>
	<polygon class="st17" points="458.4,271.1 421.2,337.6 244.4,337.6 209.4,272.8 167.1,272.8 217.8,393.9 217.8,393.9 217.8,393.9 
		452.5,393.9 496.8,271.1 	"/>
	<polygon class="st26" points="217.8,393.9 237.3,447.4 251.5,447.4 251.5,393.9 	"/>
	<polygon class="st26" points="452.5,393.9 437.9,447.4 421.9,447.4 421.9,393.9 	"/>
	<path class="st15" d="M385.2,90.2c1.8-2.5,2.1-5.7,0.8-8.5c-2.2-4.8-9.3-7.2-16-4.5s-12.6-1.1-22,6.4s-9.5,8.4-13.8,21.5
		c-2.9,8.7-8.6,14.1-11.5,18.6c-2.9,4.5-12.4,13.6-22.5,15.7s-29,25.4-26.7,31.9s27.2,20.1,52.7,20.1s37.9-24.9,38.7-36.4
		S385.2,90.2,385.2,90.2z"/>
	<path class="st12" d="M402.5,242.7c-10.2,0-158,23.2-158,23.2s-50.5,67.4,10.9,79c4.5,0,13.7,0.9,26,1.9l-8.9,21.1l35.8,24.5
		c0,0,20.2-18.4,34.7-43.1c43.5-0.6,92.2-7.6,120.3-33.6C495,286.7,412.6,242.7,402.5,242.7z"/>
	<path class="st19" d="M340.4,145.6c0,0-17.5-14-40,0s-93,96.4-49,126.7s134.5-2.2,134.5-2.2l4.7-6c0,0,53.8,11,67.8,7
		s25.5-30.1-7.5-65.3l-9.6-9.7l-30.4,21.6l-33.5-56.7C377.4,161.1,358,176.1,340.4,145.6z"/>
	<path class="st11" d="M340.4,145.6c3.5-5.7,5.8-11.9,7-18.5c0,0-11.9-5.8-8.4-16.2c2.3-6.2,11.9-1.6,11.9-1.6s-4.7-11.9,7.2-17.7
		s23-9.3,27-1.6s4.9,10.5,4.9,10.5s20.2,5.8,22.4,11.3s-6.8,39.3-4.9,42s33.8,42.1,33.8,42.1l-30.4,21.6l-33.5-56.7
		c0,0-11.9,8.9-23.6,0S340.4,145.6,340.4,145.6z"/>
	<path class="st31" d="M292.3,313.6c0,0-17.3-13.6-27.2-13.2s-69.1,31.7-68.8,37.8s58.9,6.9,58.9,6.9S273.1,315.1,292.3,313.6z"/>
	<path class="st31" d="M272.5,368c0,0-25.1,10.1-17.1,24.5s35.5,62,45,60.9s8-60.9,8-60.9L272.5,368z"/>
	<path class="st32" d="M385.5,283.6c0,0,32-6,55.9,6.6"/>
	<path class="st32" d="M390.6,264.2c0,0,50.7,13.4,67.8,7s16.3-25.7,11-37.3"/>
	<path class="st32" d="M410.9,217.8c0,0,3.8,15.4,12.6,26.6"/>
	<path class="st32" d="M377.4,161.1c0,0-2.8-11.5,5.3-15.9c0,0,0.5,12.4,7,14.5"/>
	<path class="st32" d="M385.5,88.6c0,0,11.1,20.3,8.1,39.9c-1.7,10.9-17.8,10.1-28.8,1.9"/>
	<path class="st32" d="M343.7,110.4c0,0-3.7,7.4,3.2,12.3"/>
	<path class="st32" d="M347.9,113.4c0,0-1.1,0.9-0.2,3.6"/>
	<path class="st32" d="M393.1,111.3c2.5,3.3,5.9,5.9,9.8,7.4"/>
	<path class="st32" d="M400,118.1c0,0-1.1,7.3,0.8,11.4"/>
	<path class="st32" d="M382.7,145.2c0,0,6.4-12.9,17.4-18.2"/>
	<path class="st32" d="M202.8,340c0,0,40-28.3,70-38"/>
	<path class="st32" d="M227,343.9c0,0,3.3-9.7-3.2-16.9"/>
	<path class="st32" d="M247.6,333.5c0,0,2.6,6.6,0,11.3"/>
	<path class="st32" d="M258.5,377c0,0,18.6,43.5,46,70.4"/>
	<path class="st32" d="M307.4,428.8c0,0-10.8-0.9-17.1,2.4"/>
	<path class="st32" d="M308.1,417c-3.9-1.3-8.1-1.1-11.9,0.5"/>
	<path class="st32" d="M308.4,405.9c0,0-4.5-2.9-11.2-1"/>
	<path class="st32" d="M379.8,100.4c0,0,12.2,15.7,1.4,13.8"/>
	<path class="st32" d="M373.3,119.5c0,0,4.4,4.8,12.4,3.2"/>
	<path class="st32" d="M361.8,111.3c0,0,2.9-5.7,11.5-5.9"/>
	<path class="st32" d="M359.1,104.4c0,0,4.1-7,12.2-6.5"/>
	<path class="st32" d="M385.6,101.2c0.9-1.4,2.6-2.2,4.2-1.9"/>
	<path class="st32" d="M380.5,95.9c1.5-2.3,4.2-3.6,7-3.2"/>
	<path class="st18" d="M360.4,119.5c0,2.7,2.2,4.9,4.9,4.9c2.7,0,4.9-2.2,4.9-4.9s-2.2-4.9-4.9-4.9l0,0
		C362.6,114.6,360.4,116.8,360.4,119.5z"/>
	<path class="st32" d="M375,206c2.5,15.9,3.2,32,1.9,48"/>
	<path class="st21" d="M344.2,275.7v-38.6c13.5-4.3,28-4.3,41.4,0v53.6l-41.4-1.4V275.7z"/>
	<path class="st11" d="M251.5,272.3c24.1,18.3,46.3,20.9,85.7,22.1c30.2,0.9,42.5,0.7,48.7-2.4c2.3-1.2,3.2-4,2.1-6.2
		c-0.4-0.8-1-1.4-1.7-1.9c-0.2-0.1-0.4-0.2-0.7-0.3c0,0,6.3-6.8,3.1-9.4c0,0,6.6-4.4,2-10.1c0,0,3.4-4.8,3-9.2s-7.5-6.4-7.5-6.4
		s-1.3,5.2-9.2,5.4s-29.6-0.4-29.6-0.4s-3.2-1.2-3.3-6.1c0,0-6.8-1.5-8.8,6c0,0-22.9-1.6-43.5-14.8
		C291.6,238.6,256.6,242.5,251.5,272.3L251.5,272.3z"/>
	<path class="st32" d="M308.3,392.5c36.3-32.4,66.7-99.1,66.7-99.1c-93.9,6.9-123.5-21.1-123.5-21.1s2.7-26.9,40.1-33.8
		c0,0-4.2-22.7-16-32.7"/>
	<path class="st32" d="M376.2,263.7c0,0,15.3,4.2,17.2-3.7"/>
	<path class="st32" d="M375.2,274.9c0,0,15.3,1.7,16.7-4.5"/>
	<path class="st32" d="M370.1,284.4c0,0,12.5,2.3,16.2-1.8"/>
	<path class="st32" d="M302.1,306c0,0-24.6,46-29.7,62.1"/>
	<g>
		<defs>
			<path id="SVGID_17_" d="M1901.5,480.4h-2c-2.1-2.3-4.2-4.6-6.5-6.9c-3.3-3.5-6.8-7.2-10.6-11c-45.6,19.3-105.9,7.8-105.9,7.8
				c53.1-17.9,97.5-10,105.3-8.3c-6.7-6.9-14.1-14.3-22.2-22c-42.4,15.9-97.2,3-97.2,3c49.8-14.5,90.5-5,96.8-3.4
				c-6.9-6.6-14.2-13.4-22-20.5c-33.3,12.1-75.9,2.1-75.9,2.1c36.6-10.6,66.9-4.9,74.9-3c-4.8-4.4-9.8-8.8-15-13.3
				c-27.8,8.9-62.6-1-62.6-1c31.7-7.6,57.1-0.9,62.1,0.6c-4.8-4.1-9.7-8.3-14.7-12.4c-27.7,8.7-62.3-1.1-62.3-1.1
				c30.4-7.3,55-1.4,61.4,0.4c-4.1-3.4-8.3-6.8-12.6-10.2c-21.9,7-49.3-0.8-49.3-0.8c24.7-5.9,44.6-0.8,48.8,0.5
				c-4.7-3.7-9.4-7.3-14.2-11c-14.7,4.5-32.8-0.7-32.8-0.7c10.5-2.6,21.4-2.6,31.9,0c-4-3-8-6-12.1-9l0.1-0.1
				c-12.7-0.2-25.4-7.8-25.4-7.8c9.1,0.2,18.1,2.5,26.2,6.8l0.1-0.1l0.8,0.6l0.7,0.5h-0.1c1.7,1.3,3.4,2.5,5.1,3.8
				c-2.4-10.6-2.1-21.7,0.8-32.2c0,0,4.7,18.1-0.2,32.7c4.5,3.3,8.9,6.7,13.3,10.1c-1.2-4.5-5.7-24.4,0.9-48.8c0,0,7,27.5-0.4,49.1
				c4.9,3.8,9.7,7.7,14.4,11.5c-1.6-6.2-6.9-31.1,1.3-61.5c0,0,8.9,34.6-0.5,62c5,4.1,9.9,8.1,14.6,12.1c-1.4-5.1-7.4-30.6,1.1-62
				c0,0,9,34.9-0.6,62.4c4.8,4.1,9.5,8.1,14,12.1c-1.4-6.7-7.1-38,5-75.5c0,0,8.9,43.1-4.3,76.1c6.9,6.1,13.4,12,19.6,17.9
				c-1.4-6-9.9-47.1,6.1-96.7c0,0,11.4,55.1-5.7,97c7.8,7.3,15.1,14.3,21.7,21c-1.5-8.6-7.9-52.8,11.3-104.8
				c0,0,9.8,60.4-10.6,105.4c7.5,7.5,14.3,14.5,20.3,20.9l1.9,2c-1.4-7.6-10.8-64.1,13.8-130.9c0,0,12.2,75.4-13.4,131.3
				C1898.2,476.8,1899.8,478.6,1901.5,480.4z"/>
		</defs>
		<clipPath id="SVGID_18_">
			<use xlink:href="#SVGID_17_"  style="overflow:visible;"/>
		</clipPath>
		<g class="st33">
			<path class="st29" d="M1940.5,527.2c0,0-66.8-88.7-175.1-167.7"/>
			<path class="st26" d="M1776.5,470.2c0,0,60.9,11.6,106.6-8C1883.1,462.1,1835.1,450.4,1776.5,470.2z"/>
			<path class="st26" d="M1761.3,421.1c0,0,43.5,10.2,77-2.5C1838.3,418.6,1804.1,408.7,1761.3,421.1z"/>
			<path class="st26" d="M1758.7,403.8c0,0,35.1,10,63,0.9C1821.6,404.7,1794.1,395.3,1758.7,403.8z"/>
			<path class="st26" d="M1743.8,390.9c0,0,35.1,10,63,0.9C1806.7,391.8,1779.2,382.4,1743.8,390.9z"/>
			<path class="st26" d="M1743.3,380.3c0,0,27.7,7.9,49.7,0.7C1793,381,1771.2,373.6,1743.3,380.3z"/>
			<path class="st26" d="M1745.1,369c0,0,18.7,5.3,33.4,0.5C1778.6,369.5,1763.9,364.5,1745.1,369z"/>
			<path class="st26" d="M1935.2,372.4c0,0,12.3,75.9-13.6,131.8C1921.6,504.2,1908.7,444.3,1935.2,372.4z"/>
			<path class="st26" d="M1909.8,343.6c0,0,12.3,75.9-13.6,131.8C1896.2,475.4,1883.3,415.5,1909.8,343.6z"/>
			<path class="st26" d="M1884.4,346.2c0,0,9.9,61.2-11,106.3C1873.4,452.5,1863.1,404.1,1884.4,346.2z"/>
			<path class="st26" d="M1857.1,332.9c0,0,11.4,55.5-5.9,97.5C1851.3,430.4,1839.9,386.7,1857.1,332.9z"/>
			<path class="st26" d="M1835.8,335.7c0,0,9,43.8-4.7,76.9C1831.1,412.5,1822.2,378.1,1835.8,335.7z"/>
			<path class="st26" d="M1817.5,336.7c0,0,9.1,35.4-0.8,63C1816.7,399.7,1808,371.8,1817.5,336.7z"/>
			<path class="st26" d="M1802.3,324.6c0,0,9.1,35.4-0.8,63C1801.5,387.5,1792.9,359.7,1802.3,324.6z"/>
			<path class="st26" d="M1787.1,325.4c0,0,7.2,27.9-0.7,49.7C1786.4,375.1,1779.6,353.2,1787.1,325.4z"/>
			<path class="st26" d="M1773.1,331.5c0,0,4.8,18.8-0.4,33.4C1772.7,364.9,1768.1,350.1,1773.1,331.5z"/>
			<path class="st26" d="M1739.6,352.1c0,0,14.4,8.6,27.8,7.8C1758.9,354.9,1749.4,352.3,1739.6,352.1z"/>
			<path class="st26" d="M1762.5,442.9c0,0,55.2,13,97.6-3.2C1860.1,439.7,1816.7,427.1,1762.5,442.9z"/>
		</g>
	</g>
</g>
</svg>
