<svg xmlns="http://www.w3.org/2000/svg" viewBox="0 0 24.63 90.41"><defs><style>.cls-1{fill:#231f20;}</style></defs><title>Recurso 1</title><g id="Capa_2" data-name="Capa 2"><g id="Capa_1-2" data-name="Capa 1"><rect class="cls-1" y="88.06" width="24.63" height="2.35"/><rect class="cls-1" y="78.48" width="24.63" height="1.46"/><rect class="cls-1" y="75.75" width="24.63" height="1.35"/><rect class="cls-1" y="84.19" width="24.63" height="0.95"/><rect class="cls-1" y="86.88" width="24.63" height="0.49"/><rect class="cls-1" y="85.7" width="24.63" height="0.49"/><rect class="cls-1" y="72.65" width="24.63" height="2.02"/><rect class="cls-1" y="62.74" width="24.63" height="1.46"/><rect class="cls-1" y="59.95" width="24.63" height="1.46"/><rect class="cls-1" y="68.45" width="24.63" height="0.95"/><rect class="cls-1" y="66.76" width="24.63" height="0.94"/><rect class="cls-1" y="65.2" width="24.63" height="0.4"/><rect class="cls-1" y="57.98" width="24.63" height="0.95"/><rect class="cls-1" y="56.3" width="24.63" height="0.94"/><rect class="cls-1" y="54.67" width="24.63" height="0.54"/><rect class="cls-1" y="52.92" width="24.63" height="0.67"/><rect class="cls-1" y="51.37" width="24.63" height="0.4"/><rect class="cls-1" y="49.27" width="24.63" height="0.95"/><rect class="cls-1" y="46.93" width="24.63" height="1.46"/><rect class="cls-1" y="43.88" width="24.63" height="2.02"/><rect class="cls-1" y="33.97" width="24.63" height="1.46"/><rect class="cls-1" y="31.24" width="24.63" height="1.35"/><rect class="cls-1" y="39.82" width="24.63" height="0.67"/><rect class="cls-1" y="38" width="24.63" height="0.95"/><rect class="cls-1" y="36.44" width="24.63" height="0.41"/><rect class="cls-1" y="41.58" width="24.63" height="0.67"/><rect class="cls-1" y="70.93" width="24.63" height="0.67"/><rect class="cls-1" y="18.82" width="24.63" height="0.67"/><rect class="cls-1" y="29.21" width="24.63" height="0.94"/><rect class="cls-1" y="27.73" width="24.63" height="0.54"/><rect class="cls-1" y="25.7" width="24.63" height="0.95"/><rect class="cls-1" y="24" width="24.63" height="0.54"/><rect class="cls-1" y="17.76" width="24.63" height="0.54"/><rect class="cls-1" y="16.08" width="24.63" height="0.54"/><rect class="cls-1" y="3.8" width="24.63" height="0.54"/><rect class="cls-1" y="1.15" width="24.63" height="0.54"/><rect class="cls-1" y="2.39" width="24.63" height="0.54"/><rect class="cls-1" y="22.33" width="24.63" height="0.95"/><rect class="cls-1" y="20.5" width="24.63" height="0.94"/><rect class="cls-1" y="7.63" width="24.63" height="1.46"/><rect class="cls-1" y="4.85" width="24.63" height="1.46"/><rect class="cls-1" y="13.34" width="24.63" height="0.95"/><rect class="cls-1" y="11.93" width="24.63" height="0.4"/><rect class="cls-1" y="9.83" width="24.63" height="0.95"/><rect class="cls-1" width="24.63" height="0.4"/></g></g></svg>